<svg xmlns="http://www.w3.org/2000/svg" width="256" height="256"><path fill="#1976D2" fill-opacity=".145" fill-rule="evenodd" d="M0 128.004v128.004l128.25-.254 128.25-.254.254-127.75L257.008 0H0zm.485.496c0 70.4.119 99.053.265 63.672s.146-92.98 0-128S.485 58.1.485 128.5"/><path fill="#1976D2" fill-opacity=".28" fill-rule="evenodd" d="M30.555 16.718c-2.68 2.68-2.983 5.134-1.155 9.361.796 1.84-3.359 3.915-12.9 6.441C5.653 35.392 1.917 37.088.974 39.568c-.669 1.76.328 6.709 3.958 19.643C7.601 68.72 13.486 90 18.01 106.5c4.77 17.398 8.952 30.765 9.957 31.821 2.335 2.456 8.416 3.721 12.352 2.569 1.75-.512 6.331-1.595 10.181-2.405 3.85-.811 10.723-2.658 15.272-4.104l8.273-2.63-4.636-2.347c-2.549-1.291-5.228-2.839-5.952-3.44-.976-.809-4.99-.132-15.49 2.615-10.668 2.79-14.358 3.407-14.923 2.492-.413-.668-2.819-8.72-5.347-17.893C14.742 66.163 9 44.93 9 44.041c0-1.343 9.685-4.044 14-3.904 4.587.148 32.085-7.871 33.466-9.759.941-1.288 16.32-5.963 17.041-5.181.154.167 1.192 3.453 2.307 7.303 1.466 5.063 2.051 6.17 2.113 4 .047-1.65.725-4.225 1.506-5.723 1.613-3.093.548-8.95-2.187-12.027-2.172-2.443-5.464-2.202-17.084 1.25-5.554 1.65-11.463 3-13.13 3C44.489 23 44 22.609 44 20.573 44 17.54 39.693 14 36.002 14c-1.636 0-3.818 1.089-5.447 2.718m2.016 1.853c-.864.865-1.542 2.327-1.508 3.25.047 1.245.289 1.12.937-.486.48-1.19 1.689-2.639 2.686-3.219.998-.58 1.284-1.069.635-1.086-.648-.016-1.885.677-2.75 1.541m89.68 5.509c-2.888.497-8.028 2.032-11.423 3.412-8.142 3.308-10.967 3.203-15.263-.569-4.013-3.524-6.319-3.334-10.831.892-3.264 3.056-4.996 8.624-4.091 13.15l.647 3.236-3.154-1.631c-3.558-1.84-5.952-1.098-8.585 2.66-1.673 2.389-2.108 11.342-.662 13.625.557.878-.224 3.453-2.223 7.329-3.817 7.401-4.695 16.349-2.294 23.395l1.598 4.691-2.943 3.352c-6.675 7.602-5.805 18.732 2.017 25.799C69.681 127.61 72.751 129 77.365 129c3.013 0 5.635 1.451 5.635 3.118 0 .396-1.618 1.719-3.596 2.941s-4.93 4.065-6.562 6.318l-2.967 4.095 4.813 1.145 4.812 1.145-5.1.119c-3.954.092-6.024.789-9.214 3.099-8.584 6.219-9.3 13.545-2.326 23.814 3.886 5.722 4.14 6.529 4.14 13.151V195h-6.375c-6.365 0-6.376-.005-7.012-3.184-.931-4.655-3.171-6.574-9.268-7.938-3.54-.792-5.266-1.643-4.958-2.443.259-.676 1.258-4.893 2.221-9.372 1.259-5.86 1.478-8.903.78-10.853-.718-2.009-.581-3.394.53-5.356 1.254-2.213 1.282-2.909.168-4.25-.732-.882-2.146-1.604-3.142-1.604-1.232 0-1.912-.879-2.128-2.75-.293-2.549-.624-2.736-4.519-2.565-3.374.148-4.325-.198-4.818-1.751-1.02-3.215-4.31-4.397-6.562-2.359-1.054.954-1.917 2.34-1.917 3.08 0 1.622-1.436 1.717-4.13.276-2.532-1.356-4.87.365-4.87 3.583 0 1.586-.752 2.458-2.5 2.897-2.893.726-3.464 4.544-.988 6.599 1.164.966 1.247 1.576.358 2.647-.764.92-.947 3.612-.542 7.95l.612 6.559-3.97-.671-3.97-.671v6.588C0 183.207.431 186 1.016 186c.559 0 6.475-1.35 13.147-3 6.671-1.65 13.077-2.954 14.234-2.898 2.63.128-.293.985-13.397 3.929-15.627 3.511-15 3.047-15 11.09C0 200.444.326 202 1.441 202c.793 0 1.693.408 2.001.907.309.498-.4.655-1.575.348-1.537-.402-2.005-.166-1.673.843.255.771 1.44 1.546 2.634 1.722 1.195.175 2.172.675 2.172 1.111s-1.125.577-2.5.314c-1.459-.279-2.5-.013-2.5.638C0 208.498.873 209 1.941 209s2.26.516 2.649 1.146c.499.806-.076.949-1.941.481-3.275-.822-3.578 1.026-.399 2.433l2.25.996-2.304-.448c-2.143-.418-2.282-.159-2 3.722.278 3.813.561 4.198 3.304 4.497 1.65.18 3.428.742 3.95 1.25 1.226 1.191-.035 1.189-4.207-.007-2.509-.72-3.243-.626-3.243.412 0 .787 1.656 1.622 4 2.018 2.2.372 4 1.095 4 1.607 0 .816-2.871.536-6.75-.659-.687-.212-1.25.033-1.25.545 0 .511 1.8 1.415 4 2.007s4 1.478 4 1.969c0 .514-1.373.498-3.243-.039C.748 229.78 0 229.769 0 230.858c0 .472 1.912 1.355 4.25 1.963l4.25 1.105-4.25-.475-4.25-.475v17.032l128.25-.254 128.25-.254.054-31.5c.03-17.325-.121-30.375-.334-29s-.777 2.903-1.25 3.396c-.482.501-.601-4.61-.27-11.604.628-13.305.098-17.792-2.102-17.792-.751 0-1.589-.857-1.863-1.904-.753-2.882-10.093-4.484-21.971-3.768-9.46.57-13.764 1.729-13.764 3.707 0 .531-.967 1.932-2.149 3.114-2.063 2.063-2.125 2.727-1.53 16.5l.62 14.351H190v-16.951c0-9.323-.502-19.335-1.116-22.25-1.557-7.394-5.651-15.387-9.704-18.946-2.972-2.609-3.29-3.316-2.388-5.297.835-1.83 2.062-2.384 6.164-2.778 15.641-1.503 22.904-22.145 11.245-31.955-2.812-2.367-2.842-2.496-1.459-6.369 3.111-8.713.414-21.362-6.242-29.272l-2.597-3.085 2.108-2.108c1.453-1.453 2.011-3.09 1.798-5.275-.404-4.146-3.774-5.966-9.87-5.329l-4.561.476-1.172-4.38c-1.324-4.951-6.699-10.96-10.444-11.676-1.344-.257-3.441-.098-4.659.353-1.582.585-3.561.137-6.926-1.568-8.573-4.345-19.054-6.037-27.926-4.51m65.319.842c-.957 1.058-1.972 3.653-2.255 5.767-.509 3.797-.565 3.84-4.425 3.472-2.15-.205-4.997-.1-6.325.233-2.411.605-2.412.616-.748 4.512 1.552 3.634 1.946 3.902 5.676 3.845 8.153-.123 13.263 5.1 10.634 10.87-.62 1.36-1.127 2.677-1.127 2.926S203.4 57 221 57h32v41.809c0 31.882-.297 42.209-1.25 43.494-1.118 1.507-4.541 1.712-32.464 1.941-25.044.205-31.058.509-30.423 1.535.615.994 7.67 1.276 31.714 1.266 30.313-.013 30.958-.056 32.673-2.14 1.618-1.966 1.75-6.119 1.75-54.959V37.113l-2.223-1.556c-1.258-.882-4.294-1.557-7-1.557-4.763 0-4.777-.01-4.777-3.389 0-4.783-2.895-8.105-6.313-7.247-2.793.701-5.687 5.07-5.687 8.586 0 1.793-.626 2.05-5 2.05h-5v-3.389c0-4.783-2.895-8.105-6.313-7.247-2.945.739-5.687 5.119-5.687 9.086 0 2.118-.465 2.548-2.75 2.536-5.9-.029-7.25-.951-7.25-4.948 0-6.232-5.647-9.296-9.43-5.116m1.697 1.328c-1.856 2.372-2.158 6.076-.766 9.408.768 1.838 1.94 3.342 2.603 3.342.778 0 .618-.65-.449-1.829-2.277-2.516-2.1-7.726.345-10.171 1.398-1.398 1.585-2 .622-2-.757 0-1.817.563-2.355 1.25m21.768.684C208.786 31.137 210.243 39 213.271 39c.48 0 .165-.707-.7-1.571-2.234-2.235-1.997-8.003.429-10.429 1.513-1.513 1.643-2 .535-2-.805 0-1.93.87-2.5 1.934m22 0c-1.193 2.23-1.398 9.723-.285 10.412.412.254.597-1.463.409-3.818-.273-3.436.109-4.7 1.939-6.404 1.849-1.723 1.967-2.124.626-2.124-.91 0-2.119.87-2.689 1.934M122.5 28.019c-2.2.44-7.091 1.966-10.869 3.391-9.416 3.55-13.938 3.437-17.824-.449-2.886-2.886-3.159-2.961-5.423-1.477-1.311.859-2.384 1.787-2.384 2.062s1.093-.216 2.428-1.091c2.289-1.499 2.495-1.467 3.581.562C93.293 33.416 98.653 36 102.345 36c1.325 0 6.852-1.384 12.282-3.076 8.518-2.655 11.042-3.025 18.39-2.703 6.982.305 9.777.952 15.5 3.587 4.779 2.2 6.194 2.586 4.483 1.224-3.994-3.18-10.152-5.774-16.488-6.945-6.561-1.213-8.246-1.221-14.012-.068m91.076 2.534c-.673 2.681-.084 4.447 1.483 4.447 1.198 0 1.24-5.697.048-6.434-.492-.304-1.18.59-1.531 1.987m-21.927.68c-.63 2.412.587 4.357 2.13 3.404 1.082-.669.396-5.637-.779-5.637-.422 0-1.029 1.005-1.351 2.233m43.958-.651c-.923 2.404-.746 3.151.893 3.78 1.126.432 1.5-.165 1.5-2.393 0-3.18-1.395-3.988-2.393-1.387m-208.19 2.99L23.5 37.145l4.25-3.24C31.633 30.945 32.581 30 31.667 30c-.184 0-2.096 1.608-4.25 3.572m39.333-1.316c-2.379.598-3.75 1.528-3.75 2.543 0 1.183-.293 1.308-1.122.479-1.4-1.4-4.114-.482-3.18 1.077.377.63-.075.527-1.006-.227-1.499-1.216-1.696-1.102-1.724 1-.029 2.185-.136 2.234-1.36.622C52.775 35.336 52 35.559 52 38.5c0 2.903-.787 3.173-2.484.853-.832-1.138-1.985-1.452-3.725-1.015-2.047.513-2.429 1.103-2.039 3.147.499 2.606 1.674 3.252 2.75 1.511.341-.552 1.669-.74 2.95-.419 1.281.322 2.63.099 2.998-.496.367-.595 1.766-1.081 3.109-1.081S58 40.612 58 40.138c0-.475 1.125-.739 2.5-.589s2.5-.037 2.5-.419 1.149-.789 2.553-.905 3.37-.649 4.369-1.183 2.109-.677 2.469-.318.503-.337.318-1.548c-.505-3.312-1.827-3.959-5.959-2.92m55.355.117c-1.17 1.41-.53 4.627.92 4.627 2.136 0 3.975-1.388 3.975-3 0-.982-.712-2.059-1.582-2.393-2.08-.798-1.999-.817-3.313.766m8.391.634c-.343.554.1 1.285.984 1.624 1.914.734 2.981-.075 2.061-1.564-.83-1.344-2.235-1.371-3.045-.06M35.75 41.203C33.688 41.75 32 42.59 32 43.068s-.727.59-1.615.249c-1.306-.501-1.488-.159-.949 1.782.611 2.196.547 2.252-.744.651-.777-.962-1.7-1.75-2.052-1.75s-.654.788-.672 1.75c-.029 1.583-.171 1.565-1.5-.191C23.097 43.746 23 43.738 23 45.431c0 1.499-.26 1.598-1.5.569-.825-.685-1.5-.836-1.5-.335s-.967.982-2.149 1.071c-3.064.231-3.788 1.4-2.642 4.264.948 2.367 1.041 2.394 1.76.5.45-1.187.305-2.299-.355-2.735-.774-.51-.723-.739.167-.75.705-.008 1.541.66 1.857 1.485s1.454 1.5 2.528 1.5c1.097 0 1.67-.456 1.309-1.04-.417-.675.266-.812 1.941-.392 1.659.417 2.584.236 2.584-.503 0-.634.563-1.08 1.25-.99 2.713.352 3.842-.121 3.162-1.325-.529-.938-.401-.969.516-.125.873.803 2.414.835 5.397.112C41.529 45.717 44.55 44 42.141 44c-.692 0-.981-.45-.641-1s.029-1.007-.691-1.015c-.951-.011-.899-.281.191-.985 1.333-.862 1.333-.96 0-.881-.825.048-3.187.536-5.25 1.084m180.87 1.51c-1.552 2.071-2.465 2.412-5.25 1.96l-3.37-.547v4.365c0 4.985 1.895 7.509 5.637 7.509 5.218 0 6.363-1.526 6.363-8.476 0-3.523-.338-6.611-.75-6.862s-1.596.672-2.63 2.051M36 44c0 .55.702 1 1.559 1s1.281-.45.941-1-1.041-1-1.559-1-.941.45-.941 1m38 1.393c0 1.258 7.121 4.593 9.618 4.505l2.882-.103-3-.73c-1.65-.402-4.463-1.492-6.25-2.423-1.787-.932-3.25-1.494-3.25-1.249m-13.679 2.388c-.88.559-.637 2.652.957 8.234 1.175 4.117 2.273 7.677 2.44 7.912s.925-.424 1.686-1.465c.961-1.314 1.111-2.608.49-4.242-.492-1.293-.894-4.346-.894-6.785 0-3.563-.344-4.432-1.75-4.42-.962.009-2.281.353-2.929.766M106 51c0 .55.45 1 1 1s1-.45 1-1-.45-1-1-1-1 .45-1 1m-65.25 1.679c-.962.257-1.745.772-1.74 1.144S40.999 61.475 43.417 70c4.335 15.279 4.436 15.497 7.112 15.295 1.493-.113 2.858-.349 3.034-.525.176-.175-1.62-7.508-3.99-16.295-4.321-16.015-4.8-16.872-8.823-15.796m12 3.01c-2.21.578-2.192 1.227.287 10.331 4.249 15.6 5.062 18.037 5.854 17.548 1.609-.995 2.064-13.351.672-18.276-.745-2.636-1.635-6.029-1.978-7.542-.61-2.693-1.296-2.985-4.835-2.061m125.441 4.358c.93.542 3.067 2.656 4.75 4.697S186 67.918 186 67.261c0-1.582-6.73-8.269-8.283-8.231-.669.017-.456.475.474 1.017m-2.503 2.599c-1.305 1.304-.682 2.354 1.395 2.354 1.164 0 1.909-.524 1.688-1.187-.487-1.462-2.157-2.094-3.083-1.167M20.554 63.913c-.311.503 1.013 6.446 2.941 13.209C25.423 83.884 27 90.047 27 90.817c0 1.025.736 1.218 2.75.721 1.512-.374 3.033-.985 3.38-1.359.346-.373-1.004-6.64-3-13.927-3.511-12.813-3.718-13.247-6.321-13.25-1.48-.001-2.945.409-3.255.911m11.634-.05c-1.048.664-.663 3.126 1.912 12.234 1.774 6.272 3.529 11.757 3.9 12.19s1.848.341 3.283-.204l2.608-.992-2.486-8.796c-1.367-4.837-2.751-10.258-3.076-12.045-.448-2.466-1.102-3.246-2.71-3.235-1.165.009-2.709.39-3.431.848m37.35 4.341c-1.343 2.275-1.972 5.539-2.168 11.25-.254 7.438-.198 7.706.749 3.546.564-2.475 1.892-7.322 2.953-10.771C73.265 65.095 73.28 65 72.216 65c-.432 0-1.637 1.442-2.678 3.204M171.5 67c-.729 1.18.217 3 1.559 3 .518 0 .941-.9.941-2 0-2.109-1.455-2.691-2.5-1m22.5-.258c0 .558.675 2.629 1.5 4.604 1.907 4.564 1.933 14.374.049 18.881-1.943 4.651-.659 5.773 6.604 5.773h5.753l1.041-3.75c.573-2.062 1.044-8.588 1.047-14.5L210 67h-3.36c-1.849 0-5.449-.286-8-.636-2.887-.396-4.64-.253-4.64.378m23 7.575c0 5.769-.622 10.179-2.003 14.191-1.101 3.201-1.774 6.048-1.495 6.327s7.696.714 16.483.967c14.94.431 16.027.339 16.746-1.421.423-1.034.769-7.731.769-14.881v-13l-15.25-.276-15.25-.276zm-57.925-3.753c-2.623 1.138-3.149 1.762-2.25 2.661.646.646 1.175 2 1.175 3.009 0 1.644-.546 1.755-5.25 1.069-6.863-1.001-9.997-.884-17.25.645-3.972.837-8.535 1.014-13.5.525-4.125-.407-10.425-.793-14-.857s-6.95-.408-7.5-.765-2.275-.808-3.833-1c-2.384-.296-3.045.155-4.18 2.848-1.341 3.184-1.336 3.194 1.148 2.25 3.756-1.428 10.967-1.142 15.147.602 4.681 1.952 9.817 6.832 12.336 11.718 1.657 3.215 2.222 3.619 3.846 2.75 2.442-1.306 6.634-1.305 9.079.004 1.627.871 2.115.537 3.286-2.25 1.588-3.779 6.828-9.212 11.171-11.583 1.981-1.081 5.467-1.646 10.261-1.664 6.063-.022 7.157-.274 6.628-1.526-.348-.825-1.065-3.412-1.592-5.75s-1.035-4.232-1.128-4.211c-.093.022-1.71.708-3.594 1.525M198 77.441c0 1.343.369 2.669.819 2.947.451.279.624-.82.387-2.441-.525-3.574-1.206-3.86-1.206-.506m28.543 2.49c-.317.512-.193 1.167.274 1.456s.85-.13.85-.931c0-1.686-.316-1.833-1.124-.525m4.471.483c.648.648 1.324.648 1.972 0 .647-.647.309-.985-.986-.985s-1.633.338-.986.985M92.18 87.682c-6.975 3.437-10.922 13.241-8.775 21.794.542 2.162.946 2.407 2.554 1.546 2.829-1.514 5.743-1.241 6.451.605.753 1.961-1.035 4.36-3.282 4.406-1.266.026-1.103.471.733 2 1.298 1.082 3.016 1.967 3.817 1.967 1.843 0 .836 3.937-1.47 5.75-.875.688-1.153 1.25-.618 1.25.534 0 1.494 1.385 2.134 3.079.639 1.693 2.082 3.319 3.208 3.613 1.125.295 1.799.934 1.498 1.422-.302.487.154.886 1.011.886s1.559.627 1.559 1.393c0 .925-2.1 1.763-6.25 2.493-11.754 2.069-13.229 5.032-11.877 23.868l.843 11.746.142-12.75c.078-7.012.312-12.75.52-12.75s1.895.621 3.75 1.381c11.068 4.532 34.872 1.574 34.872-4.334 0-2.915-4.289-5.647-10.912-6.95-4.693-.923-5.867-1.51-5.409-2.704 1.088-2.835 13.405.459 18.057 4.829l2.264 2.126 10.021-2.11c5.512-1.161 12.564-3.275 15.671-4.697 5.607-2.567 17.406-12.342 13.339-11.051-3.605 1.144-12.634.703-16.215-.793-4.67-1.952-10.298-7.031-11.795-10.647l-1.226-2.96-2.486 2.955c-1.368 1.625-3.472 2.955-4.675 2.955-3.304 0-6.797-2.858-6.441-5.268.417-2.821 2.487-3.316 3.29-.787.843 2.659 4.131 2.646 5.559-.023.671-1.255 1.706-1.849 2.614-1.501 1.223.47 1.377-.028.83-2.672-.764-3.687-2.9-5.749-5.955-5.749-3.075 0-6.528 2.796-6.553 5.307-.056 5.606-9.166 17.931-11.972 16.197-.665-.411-1.8.184-2.643 1.388-.817 1.166-2.568 2.108-3.92 2.108-4.209 0-3.642-.847 7.211-10.773 7.281-6.66 8.146-16.968 2.01-23.957-5.421-6.174-14.383-8.088-21.484-4.588m57.78.621c-8.283 4.38-11.226 14.788-6.71 23.727 4.823 9.547 16.318 12.414 25.541 6.371l2.547-1.668-2.669-1.399c-1.468-.769-2.669-1.744-2.669-2.166 0-2.737 6.157-4.341 7.613-1.984 1.047 1.692 2.235-1.771 2.295-6.684.169-13.994-13.72-22.664-25.948-16.197m-105.379 6.02c-8.9 2.499-15.107 4.754-15.386 5.592-.34 1.021.046 1.206 1.419.68 1.037-.398 8.524-2.571 16.636-4.828S62 91.288 62 90.831c0-1.283-1.432-.996-17.419 3.492m49.4 1.427c-5.991 5.401-4.261 15.562 3.085 18.123 2.72.948 3.121.812 4.133-1.411 1.3-2.852 2.086-3.034 4.157-.963 1.333 1.333 1.73 1.207 3.572-1.135 1.36-1.728 2.072-4.099 2.072-6.895 0-3.627-.527-4.724-3.535-7.365-4.628-4.064-9.234-4.185-13.484-.354m58.236-1.189C149.57 96.415 147 101.065 147 104c0 6.505 7.365 12.025 13.391 10.036 6.943-2.291 9.936-8.437 7.061-14.495-2.824-5.951-10.341-8.408-15.235-4.98M46.439 99.9c-15.297 4.381-16.917 4.955-16.152 5.72 1.163 1.164 27.474-6.072 28.617-7.87.612-.963.997-1.714.854-1.67-.142.044-6.135 1.763-13.319 3.82m21.876-1.439c-4.531 1.974-6.689 6.614-5.777 12.421.398 2.54.929 4.053 1.179 3.362.249-.691.865-1.002 1.368-.691s.915-.549.915-1.911c0-1.361-.562-2.702-1.25-2.98-.828-.334-.861-.531-.1-.583.632-.043 2.725-1.654 4.65-3.579s4.145-3.5 4.933-3.5 1.434-.675 1.434-1.5-.339-1.5-.752-1.5-1.351-.209-2.083-.464c-.733-.254-2.765.162-4.517.925m26.074-.031c-.996 2.595.399 4.739 2.857 4.39 1.652-.235 2.254-.987 2.254-2.82s-.602-2.585-2.254-2.82c-1.353-.192-2.496.308-2.857 1.25m56.973.07c-.888 2.314.361 4.5 2.571 4.5 2.155 0 4.075-2.724 3.349-4.75-.63-1.756-5.225-1.562-5.92.25m35.459 4.028c2.737 2.491 5.243 5.591 5.569 6.89s1.272 2.622 2.101 2.94c3.693 1.417.514-11.214-3.341-13.278-1.11-.594-3.658-1.08-5.662-1.08h-3.643zM42.73 106.965c-9.492 2.664-11.558 3.54-10.603 4.496.732.731 23.873-5.686 23.873-6.62 0-1.284-2.621-.865-13.27 2.124M203 110.441c0 2.443-.415 4.698-.923 5.011-.508.314-1.213 1.891-1.567 3.504-.752 3.423-6.517 8.965-11.517 11.072L185.5 131.5l7 .628c5.5.494 4.896.555-2.821.288-7.37-.256-9.72-.038-9.418.872.221.666 2.165 1.437 4.32 1.712 5.882.75 22.148.601 22.961-.21 1.359-1.356 2.371-9.342 2.414-19.04L210 106h-3.5c-3.475 0-3.5.032-3.5 4.441m13.992 1.783c-.004 3.452-.845 9.774-1.868 14.049-1.319 5.513-1.539 7.97-.757 8.454.607.375 7.737.87 15.846 1.1l14.743.419 1.155-2.873c.636-1.58 1.208-8.273 1.272-14.873l.117-12-15.25-.276-15.25-.276zm-173.492.514c-9.794 2.816-10.135 2.961-9.202 3.893.785.785 20.54-4.559 21.28-5.758.872-1.411-2.49-.891-12.078 1.865m8 3.262c-1.261.542-1.445.859-.5.859.825 0 2.4-.386 3.5-.859 1.261-.542 1.445-.859.5-.859-.825 0-2.4.386-3.5.859m-9.491 2.607c-3.02.812-5.945 1.973-6.5 2.581-.706.775-.559.953.491.595.825-.281 4.087-1.26 7.25-2.175s5.75-1.876 5.75-2.136c0-.662-.767-.537-6.991 1.135m4.626 2.899c-4.876 1.278-9.376 2.879-10 3.556-.875.95-.728 1.089.641.607.976-.344 6.039-1.641 11.25-2.881 5.211-1.241 9.474-2.601 9.474-3.022 0-1.089-1.386-.877-11.365 1.74m32.748 18.069c-2.685 2.553-3.223 3.281-1.193 1.617s4.501-3.479 5.492-4.034 1.528-1.282 1.193-1.616-2.806 1.48-5.492 4.033M91 142.33c-3.311.861-4.578 1.717-4.796 3.239-.446 3.119 3.914 4.631 14.796 5.13 11.457.526 18.328-1.093 18.812-4.432.263-1.817-.505-2.395-4.931-3.71-7.269-2.158-9.245-2.057-8.592.442.813 3.105-1.011 3.37-3.826.555-2.79-2.79-4.665-2.99-11.463-1.224m-67.79.86c-.666.666-1.181 2.132-1.147 3.26.056 1.81.187 1.757 1.118-.45l1.054-2.5 1.337 3c.736 1.65 1.342 2.325 1.347 1.5.006-.825-.555-2.517-1.245-3.76-.981-1.767-1.518-1.996-2.464-1.05M14 146.848c0 .505.9 1.154 2 1.442 1.1.287 2 .356 2 .152 0-.205-.9-.853-2-1.442-1.105-.591-2-.659-2-.152m17 1.652c-.694.837-.803 1.5-.245 1.5.55 0 1.56-.675 2.245-1.5.694-.837.803-1.5.245-1.5-.55 0-1.56.675-2.245 1.5m-21.802 5.031c.291.292 2.054.952 3.916 1.468 3.099.857 3.222.812 1.445-.531-1.767-1.336-6.606-2.182-5.361-.937M34 154.5c-3.21 1.835-.489 1.863 3.5.036 2.323-1.063 2.548-1.384 1-1.419-1.1-.026-3.125.597-4.5 1.383m103.648 2.077c-2.032 2.445-3.974 3.611-6.75 4.055-4.486.718-5.458 3.368-1.236 3.368 4.105 0 10.967-4.496 12.182-7.981 1.447-4.152-.497-3.893-4.196.558m-73.402-.327c-1.956 2.092-2.776 5.092-2.402 8.784.228 2.249 5.429 4.966 9.504 4.966 6.552 0 8.833-7.255 4.063-12.923-3.237-3.847-8.012-4.201-11.165-.827m76.502 6.235c-2.66 2.342-8.397 4.498-11.998 4.509-1.236.004-1.756.814-1.772 2.756-.063 7.846-7.038 15.518-16.274 17.898l-5.204 1.342 4.75-.372c2.612-.205 4.75-.075 4.75.287 0 .363 2.022.748 4.493.856 3.025.131 4.413-.193 4.25-.995-.134-.654.882-1.284 2.257-1.399 4.261-.356 5.406-.854 8.388-3.647 1.589-1.488 5.314-3.853 8.279-5.256l5.391-2.55-.658-4.957c-.531-4.001-.373-4.957.818-4.957.812 0 1.965 1.012 2.562 2.25.798 1.656 1.102 1.813 1.152.594.074-1.806 3.325-1.508 6.01.55 1.073.823 1.263.807.741-.063-.545-.909-14.318-9.436-15.021-9.299-.089.017-1.4 1.121-2.914 2.453m-130.275 4.144c.391 3.127.924 6.242 1.185 6.922.267.696 4.061 1.755 8.659 2.417 4.5.648 9.391 1.771 10.866 2.496 2.545 1.248 2.643 1.205 1.898-.824-.954-2.595-.193-9.827.958-9.116.453.28 1.105.051 1.451-.508 1.433-2.319 2.571-.81 2.062 2.734-.472 3.292-.425 3.408.383.946.507-1.543 1.065-4.468 1.241-6.5l.319-3.696-14.866-.277-14.866-.278zm1.643 3.121c.082 1.949.257 2.198.601.855.39-1.523.659-1.621 1.369-.5.632.998.888 1.039.899.145.008-.687.802-1.282 1.765-1.32 1.496-.06 1.46-.195-.25-.93-3.519-1.512-4.505-1.118-4.384 1.75m203.153-.057c.973.254 2.323.237 3-.037s-.119-.481-1.769-.461-2.204.244-1.231.498M154 174c-.901.582-1.025.975-.309.985.655.008 1.469-.435 1.809-.985.767-1.242.421-1.242-1.5 0m5 .383c0 .211.901.619 2.001.907 1.101.288 1.75.115 1.441-.383-.538-.871-3.442-1.313-3.442-.524m-89.139 3.541c2.798 2.46 4.093 2.578 6.698.608 1.847-1.397 1.796-1.471-1.059-1.514-1.65-.025-4.125-.298-5.5-.608l-2.5-.562zm89.035 3.611c1.707 1.944 3.104 4.194 3.104 5 0 1.944 1.429 1.858 3.127-.189 1.475-1.776 1.314-5.07-.347-7.096-.564-.687-2.816-1.25-5.006-1.25h-3.981zm-10.63-1.878c-.793.321-.173 1.391 1.731 2.994 3.565 2.999 5.466 9.001 4.04 12.752-1.203 3.164.733 3.614 3.308.768 3.365-3.718 1.311-12.201-3.759-15.523-2.61-1.71-3.248-1.829-5.32-.991m-10.172 6.093c-4.606 4.312-4.852 6.818-.904 9.224 3.962 2.416 6.894 2.551 10.86.5 3.313-1.713 3.73-4.066 1.487-8.402-2.541-4.915-7.049-5.436-11.443-1.322M.336 195c0 4.125.177 5.813.392 3.75s.216-5.437 0-7.5c-.215-2.062-.392-.375-.392 3.75M44 189.917c0 1.223 2.089 1.864 4.25 1.304C51.087 190.485 50.251 189 47 189c-1.65 0-3 .412-3 .917m-9 2.213c-4.992 1.798-15.205 4.683-22.235 6.279-2.728.62-2.729.627-.75 2.606 1.092 1.092 1.985 2.708 1.985 3.592 0 1.055.544 1.398 1.582 1 .87-.334 1.77-.607 2-.607s.418-1.125.418-2.5.532-2.5 1.182-2.5c3.321 0 16.865-4.353 15.729-5.055-.82-.507.075-1.039 2.518-1.498 2.744-.514 4.048-.329 4.724.671.682 1.009.855.728.64-1.04-.386-3.191-1.27-3.299-7.793-.948m205.092 8.747c-8.386 2.948-13.892 5.446-14.699 6.668-2.174 3.291-11.592 31.057-9.991 29.455.825-.825 3.337-6.225 5.583-12 7.697-19.789 5.338-17.275 21.15-22.545 7.626-2.541 13.865-5.034 13.865-5.538 0-1.458-1.698-1.036-15.908 3.96M234 199.046c-1.095.741-.691.834 1.5.344 3.677-.823 4.475-1.395 1.917-1.375-1.054.009-2.592.472-3.417 1.031M5.221 201.163c.566 1.697 3.779 1.908 3.779.249 0-.777-.937-1.412-2.083-1.412s-1.909.523-1.696 1.163m20.779.498c-5.264 1.416-8.828 3.339-6.187 3.339 1.668 0 15.348-3.828 15.996-4.476.963-.963-4.247-.359-9.809 1.137m161 9.851c-21.007 6.982-23.044 7.869-21.492 9.352 1.602 1.53 40.219 17.136 42.404 17.136 1.41 0 2.594-1.355 4.041-4.627 2.489-5.626 2.484-5.373.094-5.373-2.347 0-7.047-2.03-7.047-3.044 0-.398 2.588-1.746 5.75-2.996 7.209-2.849 8.045-3.575 4.82-4.191-1.413-.271-2.57-.143-2.57.283 0 1.103-5.3-.453-5.708-1.675-.443-1.329 8.811-5.646 11.172-5.213 1.006.185 1.981-.114 2.167-.664.281-.83-6.686-3.644-12.631-5.101-.825-.203-10.275 2.548-21 6.113m-89.394-3.546c-4.892 1.057-9.201 2.285-9.576 2.728-.79.933-8.034 24.276-8.032 25.878.001.748 2.949.683 9.752-.214 11.738-1.548 20.738-1.702 23.177-.397 1.674.896 1.845.006 2.511-13.123.438-8.633.345-14.455-.24-15.04-1.815-1.815-8.728-1.749-17.592.168m24.797-.884-3.098.896-.652 10.667c-.359 5.866-.653 12.14-.653 13.941 0 3.208.065 3.256 3.199 2.357 1.998-.573 6.595-.526 12.25.127 4.978.575 12.426 1.432 16.55 1.905s7.644.715 7.822.538c.418-.418-5.006-25.195-5.795-26.471-.502-.812-10.235-2.654-23.526-4.451-1.65-.223-4.394-.002-6.097.491m-47.96 1.336c-2.29 1.674-1.101 3.487 1.295 1.975 1.873-1.181 2.874-3.393 1.536-3.393-.49 0-1.765.638-2.831 1.418m126.603.5c-5.53 2.242-6.001 3.444-2 5.101 2.65 1.098 3.936 1.037 8.504-.403 2.96-.933 5.655-2.138 5.988-2.677.544-.881-5.325-4.021-7.256-3.883-.43.031-2.786.868-5.236 1.862m-155.546.62c-3.944 1.364-3.951 1.375-.5.793 4.079-.688 8.25-2.211 6-2.191-.825.008-3.3.636-5.5 1.398m52.113 1.516c-5.705.956-6.116 1.29-7.386 6.001l-.958 3.556 8.615-1.332c11.171-1.726 10.811-1.545 11.297-5.702.411-3.526.367-3.575-3.132-3.459-1.952.064-5.748.486-8.436.936M36.5 212c-1.261.542-1.445.859-.5.859.825 0 2.4-.386 3.5-.859 1.261-.542 1.445-.859.5-.859-.825 0-2.4.386-3.5.859m150.75 1.499c-3.914 1.691-4.093 2.796-.703 4.34 3.359 1.531 4.794 1.467 9.235-.41l3.718-1.572-2.5-1.304c-4.36-2.274-6.413-2.496-9.75-1.054M.272 217c0 2.475.195 3.488.434 2.25.238-1.238.238-3.262 0-4.5-.239-1.238-.434-.225-.434 2.25m28.541-2.317c.721.289 1.584.253 1.916-.079s-.258-.568-1.312-.525c-1.165.048-1.402.285-.604.604m39.45.567c-.54.688-3.537 4.738-6.661 9-4.783 6.526-5.365 7.75-3.68 7.75 2.255 0 14.528-15.463 13.541-17.059-.801-1.297-2.032-1.178-3.2.309M21 216.5c-1.925.741-2.825 1.348-2 1.348s3.075-.607 5-1.348 2.825-1.348 2-1.348-3.075.607-5 1.348m122.083-.148c.23.193 1.992.862 3.917 1.486 3.18 1.031 3.323.999 1.559-.352-1.584-1.213-6.865-2.307-5.476-1.134m32.167 1.139c-3.914 1.701-4.092 2.804-.703 4.348 3.176 1.448 5.291 1.462 9.304.063 4.095-1.427 3.976-2.53-.473-4.389-4.311-1.801-4.038-1.8-8.128-.022m22.951.531c-2.311 1.034-4.201 2.15-4.201 2.48s1.614 1.274 3.587 2.099c3.235 1.352 4.018 1.333 8-.187 2.427-.927 4.413-2.075 4.413-2.55s-.17-.864-.378-.864-1.917-.643-3.799-1.43c-3.082-1.287-3.839-1.242-7.622.452M125 219.5c0 .997.997 1.5 2.972 1.5 1.634 0 7.286.949 12.558 2.108s9.841 1.854 10.152 1.543c1.913-1.913-1.352-3.456-10.54-4.982-12.539-2.082-15.142-2.111-15.142-.169m60.75 2.662c-3.765 1.375-3.45 3.452.731 4.832 2.691.888 4.281.86 7-.123 4.361-1.577 4.497-3.335.37-4.773-3.681-1.283-4.427-1.277-8.101.064M.079 223.583c.048 1.165.285 1.402.604.605.289-.722.253-1.585-.079-1.917s-.568.258-.525 1.312m93.519-.237c-4.437 1.044-5.031 1.525-6.254 5.067-.744 2.152-1.238 4.001-1.098 4.11.264.205 20.171-2.601 20.362-2.871.06-.083.369-1.839.688-3.902l.578-3.75-4.687.096c-2.578.053-6.893.615-9.589 1.25M125 225.051c0 1.414 1.131 2.524 3.642 3.573 3.306 1.381 3.789 1.371 5.25-.116 1.48-1.506 1.419-1.792-.753-3.573-3.275-2.685-8.139-2.616-8.139.116m72.25 1.44c-4.029 1.751-4.102 3.017-.287 4.99 2.676 1.384 3.355 1.376 7-.083 4.811-1.925 5.015-2.841 1.087-4.872-3.535-1.828-3.674-1.829-7.8-.035m-60.836.259c.97.972 15.586 3.016 15.586 2.179 0-.35-3.124-1.152-6.943-1.782-8.138-1.345-9.657-1.414-8.643-.397m5.086 4.23c10.828 1.967 12.055 2.095 10.42 1.086-.87-.537-4.695-1.205-8.5-1.485-6.366-.468-6.52-.436-1.92.399M.355 241.5c-.003 4.95.166 7.101.376 4.78.209-2.321.212-6.371.005-9-.206-2.629-.378-.73-.381 4.22m36.895-7.469c-3.039 1.222-2.968 4.751.112 5.524 3.883.974 8.862.065 10.037-1.833.85-1.373.759-1.997-.399-2.735-2.326-1.483-3.615-1.157-1.511.381 1.812 1.325 1.805 1.405-.243 2.5-2.9 1.552-6.762 1.42-8.172-.279-1.329-1.601-.609-2.293 3.754-3.61 1.965-.594 2.143-.813.672-.83-1.1-.012-3.013.385-4.25.882M53 236.969c0 .532.675.709 1.5.393.825-.317 1.5-.753 1.5-.969s-.675-.393-1.5-.393-1.5.436-1.5.969M0 253.511v2.497l128.25-.254 128.25-.254.292-2.5.293-2.5-128.543.258L0 251.015zm.195-.011c.02 1.65.244 2.204.498 1.231s.237-2.323-.037-3-.481.119-.461 1.769"/><path fill="#1976D2" fill-opacity=".255" fill-rule="evenodd" d="M31.615 16.088c-2.624 2.064-2.808 2.634-2.282 7.077.534 4.506.389 4.927-2.147 6.239-1.496.774-7.212 2.615-12.703 4.092S3.622 37.032 2.548 38.07c-2.451 2.372-2.819.646 10.348 48.43 12.726 46.182 14.05 50.678 15.42 52.357 1.614 1.98 7.629 1.098 26.645-3.908 14.663-3.859 16.175-4.45 13.841-5.404-1.442-.589-3.471-1.84-4.509-2.78-1.791-1.62-2.631-1.509-16.155 2.129l-14.267 3.839-1.317-2.117c-.725-1.164-4.344-13.366-8.042-27.116s-8.916-32.863-11.595-42.473-4.544-17.753-4.144-18.095c1.515-1.299 12.245-3.74 14.196-3.23 2.902.759 31.203-7.546 33.031-9.693 1.635-1.92 15.133-5.556 17.399-4.686.771.296 1.694 2.266 2.05 4.378.869 5.142 2.515 7.808 2.536 4.108.008-1.48.465-2.969 1.015-3.309 1.277-.789 1.258-3.029-.066-7.799-1.748-6.293-3.742-6.529-18.918-2.243-7.225 2.04-13.784 3.461-14.576 3.157S44 22.198 44 21.142c0-2.862-3.102-6.059-6.516-6.717-2.224-.429-3.765.008-5.869 1.663m.39 2.406c-1.172 1.413-1.065 3.121.512 8.182.558 1.791-.055 2.639-3.467 4.793-3.776 2.383-5.911 5.003-4.901 6.013.409.41 29.013-7.374 29.784-8.105 1.146-1.085-2.26-2.635-7.08-3.224-4.963-.605-5.36-.851-5.453-3.37-.056-1.495-.673-3.407-1.373-4.25-1.626-1.959-6.409-1.982-8.022-.039m2.245.168c-1.768.714-1.553 4.842.334 6.408 3.117 2.587 7.024-2.428 4.376-5.618-1.228-1.48-2.48-1.69-4.71-.79M35 22c0 .55.675 1 1.5 1s1.5-.45 1.5-1-.675-1-1.5-1-1.5.45-1.5 1m153.174 3.314c-1.42 1.512-2.174 3.593-2.174 6V35h-7.059c-4.451 0-6.831.369-6.441 1 .34.55 3.404 1.006 6.809 1.012 5.967.012 6.273.139 8.45 3.5 2.384 3.68 5.389 4.479 8.303 2.206 1.758-1.371 3.503-5.185 1.927-4.211-.544.336-.989.134-.989-.448 0-.611 2.224-1.059 5.259-1.059 4.216 0 5.513.406 6.538 2.046 2.668 4.273 8.34 4.247 9.703-.045.53-1.671 1.512-2.001 5.96-2.001 5.614 0 6.135.433 7.19 5.977.259 1.363.557 2.56.661 2.661.29.281 7.767-2.383 8.365-2.981.29-.29.594-1.681.676-3.091.139-2.408.468-2.565 5.398-2.565L252 37v9.417c0 6.597-.374 9.567-1.25 9.921-.687.277-.238.54 1 .583 2.061.072 2.266-.404 2.436-5.671.103-3.163.262-7.207.354-8.987.278-5.391-1.809-7.263-8.097-7.263-5.354 0-5.443-.048-5.443-2.935 0-4.101-1.526-7.669-3.624-8.474-2.944-1.13-6.803 2.537-7.376 7.009l-.5 3.9-5.25.302c-4.961.286-5.25.17-5.25-2.101 0-3.706-1.96-8.472-3.77-9.166-2.979-1.143-6.697 2.722-7.037 7.315l-.308 4.15H197.26l-.507-4.499c-.847-7.513-4.384-9.652-8.579-5.187m-76.505 2.141c-10.493 3.666-12.504 3.623-16.074-.34-3.734-4.145-10.908-1.601-13.564 4.809-.681 1.646-1.076 5.036-.878 7.534.244 3.063-.029 4.542-.837 4.542-.659 0-1.476-.45-1.816-1-1.055-1.707-6.1-1.099-7.963.959-2.24 2.475-3.123 9.92-1.672 14.084.931 2.671.809 3.608-.759 5.82-2.721 3.839-5.111 11.574-5.073 16.422.018 2.318.855 6.595 1.859 9.505 1.787 5.171 1.785 5.313-.086 6.314-3.359 1.798-5.798 7.024-5.802 12.434-.008 10.471 7.763 19.253 17.898 20.227 3.991.383 5.18.918 5.703 2.565.43 1.355.178 2.235-.722 2.521C79.911 134.478 71 143.49 71 144.857c0 2.227 2.594 1.1 4.363-1.895 1.981-3.353 9.272-8.66 10.378-7.554.386.385.039 1.156-.77 1.712-1.105.76-.85.865 1.029.426 2.327-.546 2.365-.498.539.684-3.822 2.475-7.539 6.641-7.539 8.45 0 1.536-.691 1.788-4.25 1.548-8.553-.577-16.25 6.411-16.25 14.753 0 4.094.689 5.835 4.5 11.372 4.429 6.435 4.495 6.649 4.168 13.592L66.836 195h-6.918c-6.915 0-6.918-.001-6.918-2.809 0-4.189-1.851-5.846-8.602-7.698l-6.102-1.673 1.431-4.152c2.009-5.832 2.853-17.264 1.404-19.011-.89-1.071-.808-1.68.357-2.647.831-.69 1.512-2.336 1.512-3.657 0-1.828-.666-2.536-2.783-2.96-2.222-.444-2.776-1.094-2.75-3.225.025-2.056-.509-2.745-2.332-3.003-1.301-.184-2.854.154-3.45.75-1.48 1.48-2.685 1.363-2.685-.26 0-1.818-3.261-4.655-5.35-4.655-.931 0-2.224 1.238-2.874 2.75-1.606 3.739-1.54 3.691-3.197 2.316-2.541-2.11-6.039-.915-6.395 2.184-.174 1.512-.907 2.75-1.628 2.75s-1.91.722-2.642 1.604c-1.116 1.344-1.074 2.053.261 4.379 1.037 1.807 1.274 3.253.68 4.146-.502.754-.629 4.412-.281 8.129.506 5.427.364 6.674-.722 6.333-4.714-1.479-6.852-1.554-6.852-.24 0 1.531 5.616 2.831 20.75 4.804 5.087.663 9.25 1.574 9.25 2.025s-.788.816-1.75.811C25.018 181.975 4 187.186 4 188.004c0 .445-.9.573-2 .286-1.86-.487-2-.031-2 6.524 0 6.547.16 7.07 2.25 7.366 1.306.186 2.255 1.024 2.263 1.999.007.924.344 2.012.75 2.417 1.471 1.471.695-2.985-.809-4.647-1.418-1.566-1.321-1.766 1.155-2.387 3.641-.914 4.465.646 4.15 7.859-.184 4.209-.692 6.062-1.759 6.412-1.333.438-1.333.286 0-1.362.864-1.069.97-1.537.25-1.104-.718.432-1.25.249-1.25-.43 0-.892-.36-.883-1.468.036-.807.671-1.37 1.738-1.25 2.373.122.647-.77 1.049-2.032.916-1.939-.205-2.25.232-2.25 3.162 0 3.188.25 3.442 4 4.076 2.281.385 4 1.237 4 1.983 0 .992-.897 1.104-3.722.467-2.047-.462-3.9-.661-4.118-.443-.218.217.895.684 2.472 1.037 6.727 1.505 6.241.691 5.478 9.175-.061.67-.672 1.045-1.36.833-.687-.212-2.519-.664-4.07-1.005-2.615-.575-2.797-.417-2.5 2.166.279 2.434.893 2.898 4.843 3.662 4.154.804 6.432.233 27.913-7 25.535-8.597 23.843-7.459 24.777-16.662.643-6.347-.168-9.143-3.03-10.447-1.924-.877-2.28-1.654-1.91-4.172l.454-3.094h39.28c33.362 0 39.363.218 39.835 1.448.305.796 2.018 2.204 3.805 3.128 4.284 2.216 16.307 1.455 27.353-1.731 7.466-2.153 10.311-2.341 42.656-2.826 19.06-.285 34.469-.218 34.241.15s-2.565 1.13-5.193 1.694c-6.795 1.457-9.73 2.712-11.972 5.118-1.903 2.043-2.085 2.055-6.346.437-8.693-3.301-11.075-3.03-31.417 3.573-10.433 3.386-19.981 6.809-21.219 7.606-2.482 1.599-3.097 6.952-1.204 10.488 1.179 2.204 7.667 5.575 19.454 10.108 4.4 1.692 8.45 3.408 9 3.812s2.8 1.314 5 2.023c2.2.708 5.575 2.004 7.5 2.88 3.343 1.521 2.381 1.616-21.5 2.118-20.13.424-15.418.57 24.191.75 28.172.128 49.428-.159 49.745-.672.304-.492-1.807-.855-4.691-.805s-10.195-.058-16.245-.238c-9.56-.285-10.346-.43-6-1.107 2.75-.428 9.838-.818 15.75-.866 9.508-.078 10.758-.29 10.823-1.838.29-6.906.429-56.072.151-53.5-.193 1.787-.784 3.25-1.313 3.25-.601 0-.712-4.984-.295-13.29l.667-13.29-3.501-3.821c-3.305-3.608-3.945-3.867-11.414-4.62-7.677-.774-21.001.058-23.256 1.452-.612.378-1.112 1.305-1.112 2.061 0 .755-.855 1.645-1.901 1.976-2.823.896-3.33 4.633-2.548 18.766l.706 12.766h-23.115l-.321-21.25c-.311-20.571-.406-21.431-2.972-26.905-1.459-3.111-4.437-7.388-6.619-9.506-3.741-3.631-3.882-3.977-2.476-6.094 1.004-1.513 2.488-2.245 4.552-2.245 8.094 0 16.986-8.094 18.265-16.624.849-5.664-1.603-12.473-5.625-15.621l-2.897-2.267 1.549-4.994c2.891-9.32.238-20.848-6.493-28.218l-2.873-3.145 2.384-2.24c1.44-1.353 2.384-3.378 2.384-5.116 0-3.903-5.689-6.512-11.091-5.086l-3.591.948-1.197-4.474c-.762-2.849-2.643-5.92-5.178-8.455-3.779-3.78-4.222-3.954-8.712-3.423-3.303.39-5.33.119-6.717-.896-3.855-2.823-14.526-5.389-22.369-5.379-6.117.008-9.61.697-17.476 3.445m76.888-.232c-2.148 3.066-1.948 7.011.516 10.142 2.969 3.776 4.224 3.253 1.85-.77-2.349-3.983-1.808-7.862 1.414-10.118L194.445 25h-2.166c-1.191 0-2.866 1-3.722 2.223m22.571-.878c-1.86 2.242-2.413 7.252-1.079 9.783 1.998 3.79 4.342 4.901 5.265 2.496.322-.838-.1-1.326-1.081-1.25-1.007.079-1.97-1.104-2.577-3.166-.813-2.762-.617-3.769 1.217-6.25 1.607-2.174 1.814-2.958.779-2.958-.774 0-1.91.605-2.524 1.345m21.905.116c-.667.803-1.45 3.226-1.739 5.384-.417 3.111-.088 4.361 1.59 6.039 3.014 3.014 4.661 2.624 2.189-.519-2.75-3.495-2.618-6.911.382-9.91 2.153-2.154 2.229-2.455.622-2.455-1.008 0-2.378.657-3.044 1.461M119.5 28.417c-2.75.778-7.379 2.352-10.287 3.499-2.908 1.146-6.418 2.084-7.8 2.084C98.439 34 93 31.377 93 29.943c0-.553-.698-1.274-1.551-1.601-1.766-.678-6.449 3.25-6.449 5.409 0 .785 1.103.092 2.503-1.572l2.502-2.974 3.398 3.398c2.963 2.963 4.04 3.397 8.432 3.397 2.769 0 6.113-.41 7.432-.911s4.624-1.573 7.345-2.381l4.948-1.47-.03 2.631c-.036 3.122 3.371 4.16 5.446 1.66 1.083-1.305 1.001-1.897-.493-3.548-1.763-1.948-1.715-1.981 2.813-1.981 6.753 0 14.4 1.861 21.204 5.159l6 2.909-3.479-3.047c-7.364-6.453-23.097-9.552-33.521-6.604m72.158.258c-.362.362-.658 1.933-.658 3.492 0 2.166.471 2.833 2 2.833 1.439 0 2-.667 2-2.378 0-2.482-2.204-5.085-3.342-3.947m22.009-.008c-1.314 1.314-.701 6.333.774 6.333 2 0 2.461-1.061 1.85-4.256-.519-2.718-1.337-3.365-2.624-2.077m21.966.848c-1.277 3.328-.697 5.485 1.475 5.485 1.798 0 2.009-.405 1.43-2.75-.896-3.627-2.121-4.78-2.905-2.735M65.364 33.494c-.316.822-.976 1.246-1.469.941-.492-.304-.895-.139-.895.367 0 .507-1.192.693-2.649.414-1.814-.346-2.427-.149-1.948.628.451.729.147.921-.851.538-1.05-.403-1.552-.011-1.552 1.211 0 1.405-.267 1.54-1.2.607-1.763-1.763-2.8-1.467-2.8.8 0 2.259-1.791 2.709-2.581.648C48.667 37.689 44 38.811 44 40.95c0 2.585 1.06 3.133 2.764 1.428 1.124-1.123 1.718-1.215 2.254-.349.551.892 1.304.859 3.105-.138 1.307-.724 2.714-1.22 3.127-1.103S56 40.55 56 40s.337-.909.75-.798c.413.112 2.55-.187 4.75-.663s4.791-.763 5.757-.638 2.016-.448 2.333-1.274c.316-.825 1.18-1.269 1.92-.985.95.365 1.185-.094.8-1.563C72 32.893 70.95 32 69.864 32c-1.53 0-1.779.49-1.275 2.5.401 1.597.206 2.5-.54 2.5-.642 0-.889-.45-.549-1s.156-1-.41-1c-.565 0-.768-.675-.452-1.5.317-.825.289-1.5-.062-1.5-.352 0-.897.672-1.212 1.494m64.167-.544c-1.005 1.627 3.089 3.213 4.355 1.687.603-.727.801-1.617.439-1.979-.985-.984-4.123-.793-4.794.292m-90.975 7.96c-.309.5-.288 1.625.048 2.5.449 1.17.001 1.59-1.697 1.59-1.429 0-1.946.351-1.357.923.522.508 2.214.675 3.758.372 2.109-.413 2.639-.954 2.131-2.173-.373-.892-.699-2.184-.725-2.872-.055-1.456-1.343-1.659-2.158-.34m-3.057 1.092c-.386.624-1.331.893-2.1.598S32 42.485 32 43s-.642.691-1.427.39c-1.072-.412-1.282.032-.843 1.781.58 2.313.569 2.316-1.573.424-2.139-1.889-2.157-1.885-2.189.5-.031 2.33-.077 2.345-1.5.464C23.661 45.491 23 45.14 23 45.777c0 .638-.675.901-1.5.585-1.662-.638-1.786.145-.5 3.138.473 1.1.891 1.465.93.812.038-.653.858-1.205 1.82-1.227 3.952-.09 6.657-.807 7.007-1.857.205-.614 1.018-.868 1.808-.565.789.303 1.435.085 1.435-.485 0-.569.729-1.764 1.619-2.654.891-.891 1.386-1.853 1.1-2.138-.285-.286-.834-.008-1.22.616m40.039 5.04c2.149 2.374 8.112 4.31 11.506 3.735 2.364-.401 2.344-.443-.544-1.143-1.65-.399-5.194-1.59-7.875-2.647-4.852-1.911-4.866-1.911-3.087.055M18.086 46.5c.104 1.894 1.77 5.084 1.828 3.5.031-.825-.381-2.175-.914-3s-.945-1.05-.914-.5m-3.311 1.058c-.758.758.266 4.442 1.235 4.442.427 0 1.035-.675 1.352-1.5.316-.825.113-1.5-.452-1.5s-.75-.45-.41-1c.647-1.047-.759-1.408-1.725-.442m46.975.131c-1.925.503-2.1 1.773-.664 4.811.782 1.655.853 1.526.41-.75-.441-2.268-.181-2.75 1.485-2.75 1.11 0 2.019-.45 2.019-1 0-1.04-.337-1.072-3.25-.311m115.734 1.396c-1.511.59-1.09.791 1.766.845 2.063.038 3.75-.103 3.75-.313 0-.891-3.687-1.247-5.516-.532m19.332 2.112c-.222 2.288-1.06 3.632-2.816 4.515-2.374 1.195-2.273 1.258 2 1.258 3.341 0 4.114-.259 3-1.004-1.32-.884-1.304-1.155.138-2.264 1.511-1.161 1.496-1.436-.184-3.51l-1.823-2.252zM205 48.98c-3.363.699-3.542 2.619-.434 4.655 1.925 1.262 2.231 1.878 1.244 2.504-.994.63-.903.834.381.846 2.33.021 2.697-.92 1.951-5.005-.568-3.115-.93-3.46-3.142-3m-104.554 1.107c-.369.598-.21 1.549.354 2.113 1.262 1.262 3.2.196 3.2-1.759 0-1.684-2.574-1.94-3.554-.354M106 51c0 1.289.506 1.998 1.25 1.75.688-.229 1.25-1.017 1.25-1.75s-.562-1.521-1.25-1.75c-.744-.248-1.25.461-1.25 1.75m-64.579 1.968c-2.052.83-2.02 1.053 2.422 16.841 4.176 14.843 4.648 15.945 6.528 15.25 1.114-.413 2.128-1.281 2.253-1.93.124-.648-.003-.718-.282-.154-.828 1.669-3.632 1.222-2.98-.475.316-.825.202-1.5-.255-1.5-.456 0-.632-1.237-.39-2.75.344-2.15.207-2.422-.623-1.25-.929 1.31-1.065 1.292-1.079-.143-.021-2.266 2.961-3.313 3.064-1.076.043.946.271 1.263.505.705s-.228-3.033-1.026-5.5c-1.312-4.056-1.401-4.143-.924-.903.394 2.686.168 3.584-.903 3.584-.992 0-1.399-1.098-1.33-3.584.07-2.541-.299-3.499-1.269-3.294-1.008.214-1.195-.402-.71-2.333.428-1.706.294-2.399-.382-1.981-.572.354-1.04.203-1.04-.334 0-.538-.301-1.763-.67-2.723-.457-1.191-.298-1.516.5-1.023.664.411 1.177.157 1.185-.586.012-.963.299-.913 1.087.191.84 1.176.948.96.498-1-.315-1.375-.579-3.062-.586-3.75-.016-1.422-.651-1.472-3.593-.282m197.945 1.818c-.915 1.465-.793 1.785.681 1.785 1.108 0 1.745-.684 1.662-1.785-.074-.982-.381-1.786-.681-1.786s-1.049.804-1.662 1.786m-186.16.925c-1.575.302-2.143.964-1.814 2.114.264.921 1.937 6.962 3.717 13.425S58.69 83 59.11 83c.419 0-.175-3.263-1.32-7.25s-2.101-8.15-2.125-9.25c-.023-1.1-.52-2.338-1.104-2.75-.715-.505-.612-1.04.317-1.638.802-.517 1.051-1.418.596-2.155-.48-.775-.379-1.016.258-.623.573.354 1.346 2.27 1.719 4.257s.867 3.424 1.099 3.193c.583-.583-1.834-11.816-2.506-11.648-.299.075-1.576.334-2.838.575m8.935.289c0 .825.351 2.4.781 3.5.751 1.92.812 1.907 1.521-.325.407-1.279.474-2.592.148-2.917s-.623.046-.661.825c-.042.837-.422.598-.93-.583-.542-1.261-.859-1.445-.859-.5M189.5 56c-.34.55-.141 1 .441 1S191 56.55 191 56s-.198-1-.441-1-.719.45-1.059 1m55.25.662c.688.278 1.813.278 2.5 0 .688-.277.125-.504-1.25-.504s-1.937.227-1.25.504m-68.28 2.647c3.412 2.064 7.595 6.899 10.059 11.628 2.643 5.071 3.04 5.06 1.333-.038-1.567-4.681-5.398-9.608-8.864-11.4-3.417-1.767-5.38-1.915-2.528-.19m-1.096 3.16c-.303.789-.26 1.907.096 2.483 1.085 1.755 3.53 1.169 3.53-.845 0-2.33-2.864-3.624-3.626-1.638m-152.461 1.31-2.588.322 3.721 13.2c3.642 12.922 4.766 14.785 7.758 12.855 1.045-.674 1.072-1.764.134-5.486-.643-2.555-1.562-4.402-2.042-4.106s-.632-.088-.338-.855c.452-1.178-2.965-15.737-3.784-16.123-.151-.072-1.438.015-2.861.193m10.992 0-2.595.324 3.497 12.315c3.038 10.696 3.742 12.251 5.361 11.828 1.025-.268 2.091-.856 2.369-1.306.396-.641-5.313-23.374-5.893-23.462-.079-.012-1.312.124-2.739.301m37.274 1.505C67.461 69.764 65.418 85.005 68 89c.698 1.08.977.1.997-3.5.028-5.315 1.905-13.58 3.951-17.403 1.454-2.717.03-4.98-1.769-2.813m85.427 2.523c-4.727 2.285-4.815 2.405-2.598 3.529 3.128 1.586 4.756 4.3 3.395 5.661-1.667 1.667-11.943-1.319-11.758-3.417.095-1.085-.418-1.486-1.5-1.173-7.334 2.115-11.36 2.661-19.795 2.684-8.843.024-14.923.748-21.159 2.518-1.795.509-2.428.199-2.845-1.392-.294-1.126-1.671-2.333-3.058-2.681-2.984-.749-2.544-1.148-5.031 4.553l-2.002 4.589 4.122-1.431c4.946-1.716 11.058-1.086 16.529 1.705 4.335 2.212 9.841 8.293 10.757 11.881.475 1.86 1.025 2.186 2.716 1.609 2.896-.989 7.677-1.054 10.255-.138 1.744.619 2.249.298 2.764-1.755.876-3.489 6.201-9.304 10.554-11.524 5.127-2.616 9.85-3.308 14.87-2.178 3.855.868 4.244.793 3.598-.687-.399-.913-1.444-4.437-2.323-7.832-.878-3.394-1.822-6.333-2.097-6.529-.275-.197-2.702.707-5.394 2.008m15.084-2.164c-.379.38-.69 1.515-.69 2.524 0 1.994 2.466 2.505 3.559.737.792-1.281-1.848-4.282-2.869-3.261M24.459 71.067c-.363.586-.389 1.336-.059 1.666s.607-.037.615-.816c.013-1.167.187-1.152.985.083.828 1.282.972 1.246.985-.25.017-1.937-1.498-2.347-2.526-.683m34.62 3.516c.048 1.165.285 1.402.604.605.289-.722.253-1.585-.079-1.917s-.568.258-.525 1.312m-33.526.332c-.415.67-.483 1.488-.153 1.818s.616-.037.635-.816.679-.292 1.465 1.083 1.445 2.024 1.465 1.441c.019-.582-.571-1.888-1.312-2.901-.989-1.352-1.548-1.518-2.1-.625m174.697-.184c-1.764.615-1.553 3.773.358 5.359 1.364 1.131 1.81 1.059 2.932-.475 2.087-2.855-.043-6.017-3.29-4.884m22.417.936c-1.184 1.183-.709 4.103.76 4.667 1.829.701 3.974-1.847 3.216-3.821-.597-1.558-2.797-2.026-3.976-.846m14.693.837c-.85 2.216 2.201 5.335 3.727 3.809 1.556-1.556.72-4.726-1.352-5.125-.957-.185-2.026.407-2.375 1.316M51.079 79.583c.048 1.165.285 1.402.604.605.289-.722.253-1.585-.079-1.917s-.568.258-.525 1.312M228 80.3c0 3.486 4.725 4.832 7.438 2.119 2.092-2.092 1.005-3.713-1.459-2.174-1.509.942-2.196.938-3.154-.02-1.593-1.593-2.825-1.56-2.825.075m-73 5.713c-8.421 1.484-13.252 7.225-13.764 16.357-.413 7.353 1.428 11.521 7.084 16.041 3.334 2.663 4.618 3.055 10.07 3.071 5.28.015 6.934-.441 10.679-2.947l4.431-2.965-2.988-.543c-3.285-.596-4.558-3.412-1.989-4.398.892-.342 2.547-.127 3.677.478 3.197 1.711 4.502-1.531 3.865-9.607-.792-10.038-10.689-17.315-21.065-15.487m-63.976 2.174c-6.753 4.585-10.511 13.882-8.287 20.5.867 2.58 1.296 2.784 5.196 2.468 3.681-.299 4.203-.099 3.896 1.492-.214 1.115-1.528 2.066-3.341 2.418l-2.988.58 3.325 1.927c6.051 3.509 6.201 3.697 4.868 6.124-1.144 2.084-1.365 2.119-4.336.68-1.721-.834-4.15-2.467-5.398-3.629l-2.268-2.112.663 2.638c1.157 4.613 2.367 7.118 5.521 11.433 3.053 4.178 3.107 4.202 8.099 3.611 4.079-.483 5.026-.311 5.026.915 0 1.063-1.524 1.712-5.145 2.193-6.637.88-12.429 3.852-13.213 6.78-.338 1.262-.621 7.348-.628 13.525-.015 12.332 1.414 17.824 5.252 20.181 2.227 1.368 2.228 1.365.323-.775-2.762-3.106-1.61-3.392 3.466-.863 5.827 2.903 15.164 2.951 20.043.102 6.234-3.641 7.902-7.422 7.902-17.916 0-7.295.316-9.366 1.5-9.821 1.28-.491 1.5 1.115 1.5 10.943 0 12.302-1.114 16.339-5.096 18.47-1.141.611-1.815 1.372-1.496 1.691s1.529-.28 2.688-1.329c4.27-3.864 4.904-6.618 4.904-21.291 0-13.806-.031-14.001-2.561-15.991-1.409-1.108-5.021-2.565-8.028-3.238-5.33-1.193-7.173-3.672-2.318-3.118 9.138 1.042 16.907 6.216 16.907 11.26 0 1.68.689 1.962 4.75 1.948 7.215-.027 18.051-2.627 24.842-5.961 10.956-5.38 17.804-13.097 19.985-22.522l.694-3-2.885 2.697c-12.54 11.72-34.07 5.03-38.336-11.912-1.52-6.037-2.589-7.285-6.238-7.285-4.128 0-6.81 1.685-6.822 4.285-.025 5.785-9.18 18.952-11.975 17.224-.632-.39-1.681-.043-2.332.771s-2.456 1.777-4.013 2.139l-2.829.659 1.829-3.15c1.007-1.733 2.505-3.399 3.33-3.702 12.484-4.588 14.772-23.132 3.85-31.201-4.984-3.682-15.013-4.106-19.826-.838m154.535 2.029-.769 3.716-10.145.323-10.145.323 10.731.211c10.595.208 10.739.18 11.339-2.21.334-1.331.416-3.244.183-4.25-.274-1.18-.698-.51-1.194 1.887m-38.391 1.733c-.585 1.678-.69 3.051-.233 3.051.793 0 2.212-5.171 1.592-5.801-.163-.166-.774 1.072-1.359 2.75M96 94.223c-1.375.711-3.323 2.974-4.33 5.029-1.537 3.14-1.645 4.293-.677 7.226 1.166 3.534 5.188 7.522 7.585 7.522.72 0 2.013-1.006 2.874-2.235 1.382-1.974 1.813-2.08 3.683-.912 2.952 1.843 4.939-.328 5.59-6.107.437-3.877.129-4.874-2.361-7.637-3.297-3.659-8.514-4.876-12.364-2.886m56.311.677c-5.83 3.65-6.402 12.163-1.116 16.611 4.292 3.611 10.016 3.432 13.882-.434 8.477-8.477-2.614-22.531-12.766-16.177m-57.784 2.716c-1.858 1.858-1.625 3.289.783 4.807 1.784 1.126 4.725-.028 5.425-2.128C101.12 99.14 98.389 96 97 96c-.471 0-1.584.727-2.473 1.616m57.636-.738c-.736.467-1.186 1.922-1 3.235.464 3.285 5.356 3.977 6.334.897 1.135-3.576-2.171-6.137-5.334-4.132M68.388 97.98c-8.214 3.319-8.494 16.546-.493 23.278 2.944 2.478 9.959 5.222 10.911 4.269.231-.231-.12-2.666-.779-5.413s-1.272-8.734-1.362-13.304-.615-8.641-1.165-9.045c-1.3-.955-4.452-.86-7.112.215m114.862-.355c-2.007.869-1.439 4.092.825 4.684 1.732.453 1.897.874 1 2.551-.591 1.105-1.12 3.276-1.175 4.824l-.099 2.816-.72-2.5c-.549-1.906-.869-.956-1.345 4-.343 3.575-.927 7.513-1.297 8.75-.588 1.967-.312 2.25 2.194 2.246 7.224-.009 13.357-7.229 13.363-15.73.003-4.315-.479-5.765-2.746-8.253-2.648-2.906-7.397-4.515-10-3.388M74.158 104c0 1.375.227 1.938.504 1.25.278-.687.278-1.812 0-2.5-.277-.687-.504-.125-.504 1.25m146.655 3.683c.721.289 1.584.253 1.916-.079s-.258-.568-1.312-.525c-1.165.048-1.402.285-.604.604m16.437.006c.963.252 2.537.252 3.5 0 .963-.251.175-.457-1.75-.457s-2.713.206-1.75.457m-113.689 3.212c-1.155 1.869.468 5.159 3.025 6.132 4.298 1.634 9.996-2.155 8.696-5.783-.664-1.851-2.063-1.517-2.753.658-1.034 3.258-3.79 3.503-6.147.546-1.37-1.717-2.376-2.272-2.821-1.553m98.894 4.531c-1.567 1.163-1.735 1.81-.846 3.259 1.4 2.283 3.354 2.315 4.765.078.833-1.32.729-2.095-.436-3.26-1.342-1.341-1.769-1.351-3.483-.077m15.795-.701c-1.554.542-1.63 3.489-.128 4.991 1.662 1.662 3.878.393 3.878-2.222 0-2.365-1.575-3.528-3.75-2.769m-37.193 3.162c-.91 1.7-.843 2.107.349 2.107 1.981 0 3.067-1.927 1.8-3.194-.694-.694-1.382-.346-2.149 1.087m26.718 1.188c-.902 2.537 1.143 4.919 4.225 4.919 3.264 0 5.973-3.281 3.812-4.616-.657-.406-1.371-.208-1.586.439-.574 1.722-3.316 1.436-4.726-.492-1.003-1.372-1.31-1.417-1.725-.25m17.398 8.011-1.327 6.593-15.173-.236c-11.566-.179-14.031-.015-10.369.69 2.642.509 9.823.798 15.957.643l11.153-.282.834-4c.458-2.2.702-5.35.543-7-.217-2.233-.63-1.315-1.618 3.592m-37.094.491c.048 1.165.285 1.402.604.605.289-.722.253-1.585-.079-1.917s-.568.258-.525 1.312m-1.299 4.149c-.514 1.967-1.338 2.214-8.425 2.523l-7.855.343 8.281.201c8.427.205 10.134-.553 8.989-3.99-.231-.693-.675-.279-.99.923M173 136.63c0 .538 1.631 2.528 3.625 4.424 2.189 2.08 3.216 2.653 2.592 1.446-1.313-2.54-6.217-7.171-6.217-5.87M77.5 143c-2.213 2.31-2.492 3-1.213 3 .914 0 2.36-1.35 3.213-3s1.399-3 1.213-3-1.632 1.35-3.213 3m-55.339 1.547c-.639 1.401-1.161 3.222-1.161 4.048 0 1.867 4.936 6.563 6.126 5.827 1.387-.857 1.016-6.246-.652-9.472-1.87-3.616-2.81-3.703-4.313-.403m64.797.003c-2.339 2.819 1.037 4.621 10.711 5.719 9.467 1.073 19.159-.152 21.265-2.689.858-1.034-.142-1.655-4.739-2.945-7.112-1.996-7.195-1.997-7.195-.135 0 1.964-2.404 1.923-4.057-.069-1.02-1.229-2.401-1.425-6.373-.905-2.788.365-6.083 1.307-7.32 2.092s-2.25.99-2.25.455c0-.536.787-1.432 1.75-1.993s1.243-1.033.622-1.05c-.62-.016-1.706.668-2.414 1.52m-72.927 3.7c.018 1.238 1.143 3.059 2.5 4.047 2.458 1.789 2.469 1.785 2.469-.89 0-2.411-2.278-5.292-4.25-5.375-.412-.018-.736.98-.719 2.218m17.624-.421c-.91 1.006-1.655 2.827-1.655 4.046 0 2.177.046 2.185 2.469.422 1.357-.988 2.482-2.809 2.5-4.047.038-2.726-1.097-2.871-3.314-.421m3.792 5.625c-1.621.682-3.548 1.963-4.282 2.847-1.202 1.448-1.003 1.513 1.994.653 4.144-1.188 4.105-1.19 3.261.176-1.272 2.057 1.864.328 3.285-1.812 1.824-2.747-.127-3.601-4.258-1.864m41.366-.771c.721.289 1.584.253 1.916-.079s-.258-.568-1.312-.525c-1.165.048-1.402.285-.604.604m61.51 3.109c-2.291 2.314-5.214 4.277-6.495 4.36l-3.828.252c-.825.054-1.5.998-1.5 2.097 0 1.668.573 1.952 3.464 1.716 6.331-.517 13.673-6.671 12.879-10.795-.294-1.527-1.058-1.127-4.52 2.37m-129.359-.86c1.315 2.457 4.101 3.349 7.051 2.258l2.305-.852-2.383-1.669c-1.31-.918-3.648-1.669-5.195-1.669-2.47 0-2.686.235-1.778 1.932m55.061 1.043c-3.889 3.889-3.837 10.213.117 14.167 2.715 2.715 9.474 2.051 12.098-1.19 2.655-3.278 2.309-9.493-.695-12.497-3.096-3.097-8.671-3.329-11.52-.48m80.604.758c-2.537 4.878-6.339 7.571-12.388 8.776l-5.741 1.143-.546 4.424c-.679 5.506-1.939 7.825-6.353 11.701-2.278 2.001-5.477 3.484-9.288 4.307-3.197.69-6.002 1.406-6.234 1.59-.231.183.658 1.482 1.977 2.885 1.988 2.116 2.074 2.428.506 1.827-1.316-.506-1.671-.371-1.167.444.489.792 4.744 1.17 13.164 1.17H131v-2.852c0-4.755 3.925-9.344 10.966-12.82l6.425-3.172-.276-5.187c-.331-6.248 1.357-5.979 2.308.368l.654 4.362 4.832-.464c2.958-.285 5.098-.032 5.52.65.457.74-.508 1.115-2.87 1.115-3.955 0-4.522.918-1.667 2.7 1.04.65 2.917 3.45 4.17 6.222 1.708 3.78 2.588 4.783 3.519 4.011.853-.708 1.444-.702 1.889.018.917 1.484-.418 3.283-1.988 2.68-.724-.277-1.589.206-1.923 1.075-1.045 2.725.131 2.543 3.596-.555 3.084-2.758 3.343-3.449 3.314-8.86-.025-4.493-.647-6.916-2.652-10.33-2.723-4.635-14.668-16.764-18.533-18.817-1.964-1.044-2.379-.864-3.655 1.589m-17.629-.06c0 1.49 2.794 1.744 4.851.44.959-.607.45-.989-1.75-1.311-2.139-.314-3.101-.044-3.101.871m-37.291 1.951c-1.443 1.444-.644 4.262 1.392 4.908 2.528.803 4.217-.634 3.733-3.176-.358-1.874-3.815-3.042-5.125-1.732m20.68.806c-.996 2.595.399 4.739 2.857 4.39 1.652-.235 2.254-.987 2.254-2.82s-.602-2.585-2.254-2.82c-1.353-.192-2.496.308-2.857 1.25m116.361 1.307c2.887.202 7.613.202 10.5 0s.525-.367-5.25-.367-8.137.165-5.25.367m-216.419 6.905c.341 3.654.757 6.779.923 6.946s3.441.797 7.275 1.402c11.101 1.749 14.281 2.837 15.01 5.133 1.053 3.318 2.505.843 4.571-7.791C41.315 159.939 42.455 161 24.855 161H9.711zM97 162.977c0 1.087 1.101 2.698 2.447 3.58 2.105 1.379 2.838 1.416 5.25.264 1.597-.764 2.94-2.303 3.123-3.58.367-2.574-1.001-2.933-2.82-.741-.685.825-1.879 1.5-2.654 1.5s-1.668-.675-1.984-1.5c-.841-2.191-3.362-1.834-3.362.477m120.573 1.695c-.741 1.928 6.496 2.551 15.427 1.328 4.545-.622 9.891-.944 11.882-.714s2.718.19 1.618-.087c-1.868-.471-1.848-.544.311-1.102 1.272-.328-4.685-.597-13.237-.597-10.968 0-15.683.345-16.001 1.172M214 171c0 1.876.633 1.994 10.25 1.9 6.257-.061 9.276-.391 7.75-.849-2.143-.642-1.786-.853 2.5-1.479 8.381-1.223 7.53-1.411-6.75-1.493-13.11-.075-13.75.014-13.75 1.921m.396 8.89c.332 2.414.604 6.801.604 9.75V195l7.75-.015c4.742-.01 7.221-.351 6.387-.879-.875-.555-.972-.997-.27-1.235.602-.204 1.553-2.797 2.114-5.761s1.764-5.934 2.672-6.599c.909-.664 1.356-1.687.994-2.274-.363-.586-.094-1.278.597-1.537.691-.26-3.853-.636-10.098-.836l-11.353-.364zM68 176.965c0 2.446 6.223 3.842 9 2.02 1.333-.876 1.333-1.094 0-1.97-1.937-1.271-9-1.311-9-.05m12.028 3.502c-.7.843-2.23 1.57-3.4 1.615-1.722.066-1.519.348 1.063 1.478 4.029 1.765 12.459 3.056 10.357 1.587-.799-.558-1.881-.75-2.405-.427-.524.324-.671.135-.328-.42s-.42-1.99-1.696-3.188c-2.057-1.932-2.463-2.005-3.591-.645m67.673-.834c-.348.348.416 1.458 1.698 2.466 3.195 2.514 4.892 7.056 4.433 11.869-.316 3.313-.074 4.032 1.356 4.032 2.372 0 3.812-3.036 3.812-8.034 0-3.404-.622-4.788-3.4-7.566-3.151-3.151-6.384-4.283-7.899-2.767m-7.494 3.922c-2.997 1.26-6.207 5.832-6.207 8.84 0 .821 1.037 2.699 2.304 4.172 3.182 3.699 10.011 3.997 12.796.558 2.46-3.038 2.425-8.187-.076-11.367-2.527-3.213-4.965-3.822-8.817-2.203m-44.394.128c.721.289 1.584.253 1.916-.079s-.258-.568-1.312-.525c-1.165.048-1.402.285-.604.604m13 0c.721.289 1.584.253 1.916-.079s-.258-.568-1.312-.525c-1.165.048-1.402.285-.604.604M34 188c0 3.629-3.476 5.689-13.627 8.074-5.43 1.276-10.058 2.454-10.284 2.617-.225.163.382 1.172 1.351 2.243 1.306 1.443 1.67 3.208 1.411 6.826l-.351 4.881 10.429-2.8c19.013-5.103 19.92-5.518 20.657-9.446.357-1.906.383-4.8.057-6.43-.326-1.631-.17-2.965.347-2.965 1.74 0 3.202 4.192 2.828 8.111-.259 2.716.022 3.889.93 3.889 2.737 0 4.312-9.152 2.24-13.022-1.154-2.156-6.724-3.964-12.238-3.972-3.085-.005-3.75.349-3.75 1.994M.336 195c0 4.125.177 5.813.392 3.75s.216-5.437 0-7.5c-.215-2.062-.392-.375-.392 3.75m241.164 5.157c-7.7 2.713-14.744 5.7-15.653 6.638s-3.752 7.555-6.317 14.705-5.611 14.909-6.77 17.243-1.815 4.535-1.458 4.892c1.565 1.566 3.994-2.812 9.691-17.467 3.35-8.617 6.443-16.343 6.875-17.168.431-.825 6.825-3.52 14.208-5.99 15.881-5.312 14.176-4.529 13.762-6.319-.27-1.171-3.159-.473-14.338 3.466m-214.323-1.645c-8.429 2.33-9.969 3.029-8.94 4.059.812.812 20.763-4.678 20.763-5.713 0-1.265-2.552-.908-11.823 1.654m-1.048 5.556c-6.568 1.898-7.852 2.542-6.922 3.473.85.849 14.346-2.489 16.425-4.062 1.768-1.339 1.734-1.411-.632-1.334-1.375.045-5.367.91-8.871 1.923m49.628.801c-4.395 2.241-6.756 4.914-17.402 19.705-7.747 10.765-8.225 11.227-9.801 9.486-5.012-5.538-17.962-1.551-16.248 5.003.44 1.681-.294 1.892-7.66 2.195l-8.146.335 9.191.203c5.055.112 9.469.654 9.809 1.204.772 1.249 9.492 1.291 11.445.055.983-.622 2.339-.277 4.247 1.081l2.802 1.996 4.003-2.25c2.202-1.238 4.003-2.602 4.003-3.031s1.35-2.319 3-4.198c3.14-3.576 3.873-5.273 1.75-4.052-.726.418-.901.338-.417-.191.459-.5 1.359-.911 2-.913.642-.001 1.168-.901 1.168-2 .001-1.098.6-1.997 1.331-1.997 1.738 0 4.281-3.507 3.481-4.802-.354-.573-.122-.698.54-.289.65.402 1.425.029 1.761-.846.33-.859 1.253-1.563 2.052-1.563s1.169-.457.824-1.016-1.16-.721-1.809-.359c-.65.361-.447-.125.451-1.08.897-.956 2.301-1.581 3.12-1.391 1.221.284.773 2.575-2.504 12.798-2.985 9.311-3.772 13.059-3.12 14.859l.872 2.407 41.379.003c36.618.003 41.595-.182 43.261-1.609 1.036-.887 3.115-1.665 4.621-1.73l2.739-.119-2.884-.631c-2.81-.616-2.969-1-6.231-15.132-1.841-7.975-3.789-15.498-4.33-16.719-.979-2.207-.927-2.22 10.231-2.572 9.085-.287 8.366-.354-3.786-.351-9.635.003-18.945-.635-26.031-1.782-9.701-1.571-11.449-1.615-14.5-.368-2.941 1.202-3.85 1.211-5.969.056-2.945-1.606-9.873-1.158-21.44 1.383-7.27 1.598-7.911 1.949-9.201 5.035-.762 1.825-1.999 3.318-2.748 3.318-1.121 0-1.088-.766.19-4.318 1.623-4.515 1.187-7.682-1.058-7.682-.726 0-2.97.841-4.986 1.869m109.743 6.957c-20.822 6.948-23.639 8.689-17.796 10.998 1.538.608 10.512 4.272 19.943 8.141S205.954 238 207.372 238c2.571 0 4.182-2.066 6.631-8.507.868-2.285.749-2.475-1.272-2.03-1.227.27-3.581-.121-5.231-.87l-3-1.361 4.5-2.042c2.475-1.123 5.175-2.188 6-2.366 1.492-.322 2.955-1.764 2.985-2.941.008-.34-1.839-.46-4.106-.268s-4.79-.026-5.609-.484c-2.176-1.217 5.172-5.531 9.422-5.531 1.819 0 3.308-.477 3.308-1.059 0-1.122-11.457-5.595-14-5.465-.825.042-10.5 3.08-21.5 6.75m-89-4.141c-3.85.813-7.543 2.004-8.207 2.646C87.07 211.515 79 236.272 79 238.839c0 .969.686 1.199 2.25.752 4.559-1.3 30.629-1.936 32.022-.78 1.081.897 1.388.297 1.58-3.099.131-2.317.633-9.162 1.115-15.212.754-9.445.655-11.247-.7-12.75-1.948-2.162-8.719-2.185-18.767-.065m24.85-.691c-2.49 1.005-2.942 3.247-3.91 19.404-.605 10.11-.526 10.849 1.095 10.227 1.335-.512 1.499-.37.696.602-.842 1.019 1.574 1.281 12.109 1.312 7.238.021 16.368.357 20.289.746l7.129.706-1.446-7.745c-2.474-13.25-4.835-21.549-6.353-22.332-1.763-.909-21.444-3.948-24.959-3.854-1.375.037-3.468.457-4.65.934M34 212.097c-9.625 2.73-19.535 5.482-22.022 6.116l-4.522 1.152 2.317 2.318c2.779 2.778 3.225 2.856 3.232.567.004-1.328 1.991-2.333 8.25-4.168 4.535-1.33 12.295-3.627 17.245-5.104 13.259-3.958 15.27-4.235 15.869-2.19.275.942.417.592.316-.778-.102-1.369-.86-2.577-1.685-2.683s-9.375 2.04-19 4.77m28.762-4.39c1.244.239 3.044.23 4-.02s-.062-.446-2.262-.435-2.982.216-1.738.455m11.438.493c-1.622 1.622-1.51 2.467.427 3.21 1.497.575 4.26-1.755 4.341-3.66.051-1.197-3.451-.867-4.768.45m126.05 1.462c-5.082 1.799-5.323 2.768-1.056 4.256 2.53.882 4.193.782 7.989-.479 5.636-1.872 6.597-2.951 3.911-4.389-2.597-1.39-5.68-1.216-10.844.612m-14 4.369c-3.117 1.253-2.812 2.577.892 3.869 3.301 1.151 10.858-.299 10.858-2.083 0-2.278-7.637-3.439-11.75-1.786M.252 217.5c.011 2.2.216 2.982.455 1.738s.23-3.044-.02-4-.446.062-.435 2.262m62.257 5.25c-3.917 5.295-5.987 8.894-5.241 9.115.678.201 1.713.963 2.301 1.693.833 1.036 2.216-.205 6.288-5.648 2.871-3.836 4.971-7.38 4.665-7.874-.305-.494-.028-1.223.616-1.621q1.171-.725.362.585c-.535.866-.418 1.068.345.595 2.471-1.526.699-5.595-2.436-5.595-.235 0-3.34 3.938-6.9 8.75m111.741-4.719c-3.21 1.29-2.786 2.637 1.25 3.969 3.648 1.204 10.5-.129 10.5-2.042 0-2.546-7.252-3.735-11.75-1.927m23.483.274c-3.353 1.324-3.081 2.711.835 4.273 2.456.98 3.662.846 7.432-.825l4.5-1.995-3-1.334c-3.545-1.576-6-1.606-9.767-.119m-11.483 4.186c-1.787.777-3.25 1.682-3.25 2.012 0 .329 1.575 1.257 3.5 2.061 3.071 1.284 3.929 1.284 7 0 1.925-.804 3.5-1.733 3.5-2.064 0-.511-6.391-3.576-7.218-3.461-.155.022-1.745.675-3.532 1.452M125 224.943c0 1.503 4.232 4.057 6.723 4.057 2.678 0 3.22-3.424.695-4.393-2.452-.941-7.418-.716-7.418.336m73.06 1.51c-4.338 1.494-4.824 2.878-1.539 4.375 3.226 1.47 4.727 1.472 7.932.011 3.26-1.485 3.213-2.45-.203-4.179-2.209-1.118-3.427-1.159-6.19-.207M.195 235.5c.02 1.65.244 2.204.498 1.231s.237-2.323-.037-3-.481.119-.461 1.769m36.028-.943c-2.738 1.917-2.877 5.022-.289 6.408 2.428 1.299 9.077 1.32 11.066.035.825-.533 1.107-.976.628-.985-.48-.008-.27-.742.467-1.63 1.149-1.384 1.008-1.883-.988-3.5-2.827-2.289-7.868-2.441-10.884-.328m128.027.132c.963.252 2.537.252 3.5 0 .963-.251.175-.457-1.75-.457s-2.713.206-1.75.457m-111.222 1.778c-.7.843-.938 1.533-.528 1.533s.185.675-.5 1.5c-.718.865-.815 1.5-.229 1.5.558 0 1.271-.667 1.584-1.483.342-.892 1.223-1.233 2.209-.854 1.203.462 1.545.147 1.287-1.184-.47-2.425-2.258-2.898-3.823-1.012m54.172-.518c2.585.479 5.285 1.202 6 1.608 1.001.567 1.032.446.137-.523-.64-.693-3.34-1.417-6-1.608l-4.837-.348zm20.3.053c3.85.39 10.375.981 14.5 1.315l7.5.605-8.5-1.373c-4.675-.756-11.2-1.347-14.5-1.315l-6 .059zm-88.935.893c-.305.493.182 1.178 1.082 1.523 2.092.803 5.561-.272 4.809-1.49-.734-1.187-5.163-1.211-5.891-.033m57.185-.233c.688.278 1.813.278 2.5 0 .688-.277.125-.504-1.25-.504s-1.937.227-1.25.504m10.012 4.045c1.244.239 3.044.23 4-.02s-.062-.446-2.262-.435-2.982.216-1.738.455M4.776 241.733c2.352.212 5.952.209 8-.006s.124-.388-4.276-.384c-4.4.003-6.076.179-3.724.39m79 0c2.352.212 5.952.209 8-.006s.124-.388-4.276-.384c-4.4.003-6.076.179-3.724.39m61.974-.071c.688.278 1.813.278 2.5 0 .688-.277.125-.504-1.25-.504s-1.937.227-1.25.504M26.5 248.025c-25.609.518-25.444.528 11 .634 35.547.105 44.612-.212 24.5-.855-5.225-.167-21.2-.068-35.5.221M0 253.45v2.558l128.25-.254 128.25-.254.327-2.856c.248-2.171.008-2.658-1-2.027-.73.457-58.589.706-128.577.553L0 250.893zm.195.05c.02 1.65.244 2.204.498 1.231s.237-2.323-.037-3-.481.119-.461 1.769"/><path fill="#1976D2" fill-opacity=".735" fill-rule="evenodd" d="M30.901 17.099c-2.071 2.071-2.219 4.99-.461 9.083.794 1.85-2.398 3.921-9.856 6.397-3.288 1.091-3.46 1.251-.884.82 3.15-.528 3.186-.489 2.332 2.491-.737 2.569-.567 3.123 1.125 3.66 1.097.348 2.26.367 2.585.041.325-.325.066-.591-.575-.591-2.273 0-1.124-3.859 1.91-6.411C28.769 31.165 30.521 30 30.97 30c1.645 0 1.905-3.012.493-5.719-1.844-3.535-1.848-3.49.576-6.092C35.884 14.061 42 16.537 42 22.222c0 2.833 1.564 3.77 6.332 3.793 3.642.018 4.887.689 6.473 3.485 1.093 1.927 1.135 1.929 1.165.079.016-1.057-.686-2.713-1.562-3.681-1.495-1.651-1.145-1.892 5.75-3.951 11.046-3.299 14.873-3.626 16.494-1.408.741 1.014 1.348 1.397 1.348.852C78 19.608 75.651 18 73.048 18c-1.404 0-7.275 1.35-13.048 3-13.393 3.828-15.568 3.861-16.47.25-.377-1.512-1.396-3.538-2.263-4.5-2.204-2.446-7.758-2.259-10.366.349m2.461 3.401c-.876 2.281.349 4.5 2.484 4.5 2.48 0 4.358-2.305 3.564-4.373-.784-2.044-5.277-2.138-6.048-.127m2.138.5c-.399.646-.276 1.624.274 2.174q1 1 1.726-.174c.399-.646.276-1.624-.274-2.174q-1-1-1.726.174m152.955 4.455c-5.092 5.091-1.885 17.086 4.372 16.35 2.137-.251 2.743-1.011 3.434-4.305 1.012-4.82.142-10.362-2.001-12.75-2.075-2.313-2.887-2.214-5.805.705m-66.955-.791c-1.1.237-5.937 1.815-10.748 3.506-7.768 2.73-9.089 2.933-11.789 1.815-1.671-.693-3.488-2.098-4.036-3.122-2.115-3.952-9.653-1.068-12.413 4.749-1.265 2.665-1.597 5.043-1.187 8.503l.569 4.803-3.421-1.632c-4.792-2.285-7.967-.713-9.605 4.755-.956 3.189-.974 5.12-.082 8.458 1.081 4.04.947 4.733-2.021 10.489-2.661 5.16-3.172 7.25-3.138 12.838.024 4.009.727 8.271 1.76 10.674 1.708 3.974 1.703 4.013-.716 6-12.381 10.171-2.534 32.5 14.333 32.5 2.015 0 4.875 2.387 4.962 4.142.018.352-1.054.914-2.38 1.247C79.27 134.97 71 143.369 71 145.141c0 1.826 1.716.692 5.131-3.391 4.612-5.514 8.222-7.532 10.335-5.778 1.9 1.577 1.982 3.028.17 3.028-2.255 0-6.636 5.1-6.636 7.724 0 2.293-.251 2.409-3.873 1.797-6.952-1.174-15.073 4.003-16.952 10.807-1.398 5.065-.082 9.53 4.731 16.044 4.094 5.543 4.175 5.808 3.887 12.758l-.293 7.098-6.948-.003c-5.799-.002-7.053-.302-7.582-1.81-.547-1.561-.723-1.474-1.288.639-.36 1.345-.661 3.658-.668 5.139-.009 1.639-.884 3.303-2.237 4.25-3.273 2.293-3.581 2-3.031-2.883.554-4.915-.278-9.56-1.713-9.56-.54 0-.477 1.296.149 3.093 1.584 4.544-.389 10.436-3.949 11.795-2.118.808-1.096.908 4.543.446 8.758-.719 11.233.732 11.21 6.571-.029 7.708.049 7.646-15.845 12.627-8.053 2.524-16.338 5.236-18.411 6.028-6.416 2.451-7.05 2.117-6.302-3.31.467-3.386.36-4.319-.371-3.25-.565.825-1.033 3.139-1.042 5.143-.009 2.305-.566 3.854-1.515 4.219-1.227.47-1.5-.478-1.5-5.202 0-7.081-1.217-8.742-7-9.555-3.152-.444-4.051-.334-3 .365.825.55 2.422 1.006 3.55 1.015 3.348.025 4.45 2.075 4.45 8.276v5.862l-4.5-.675c-4.686-.703-6.443.798-2.25 1.922 5.711 1.53 11.763.373 31.114-5.949C56.388 222.899 58 221.835 58 214.167c0-5.38-2.133-9.167-5.164-9.167-1.56 0-1.878-.418-1.33-1.75.397-.963.947-2.537 1.224-3.5.408-1.418 1.667-1.755 6.637-1.775 3.373-.014 21.156-.003 39.518.025l33.386.05 3.068 2.582c2.674 2.25 3.718 2.513 8.115 2.048 10.131-1.072 13.128-1.605 17.261-3.071 3.399-1.206 11.235-1.535 40.476-1.699 19.944-.112 37.397-.549 38.785-.971 2.805-.852-.429-1.127-15.641-1.33-4.491-.06-8.493-.436-8.894-.836s-1.004-5.012-1.343-10.25l-.615-9.523h39.75l-.809 6.75c-.445 3.713-.835 7.99-.867 9.505-.046 2.243-.708 2.968-3.557 3.902-1.925.63-4.4 1.725-5.5 2.431-1.1.707-5.081 2.055-8.847 2.995-3.85.961-8.163 2.816-9.855 4.24l-3.008 2.532-6.83-2.369-6.831-2.369-20.245 6.442c-11.135 3.542-21.289 7.261-22.565 8.264-2.8 2.2-3.062 6.581-.569 9.515 2.179 2.565 43.038 19.162 47.174 19.162 1.662 0 7.871-1.613 13.799-3.583 25.845-8.594 31.277-10.706 31.277-12.16 0-1.003-.556-1.246-1.75-.764-.963.388-10.075 3.53-20.25 6.981s-19.24 6.586-20.145 6.967c-2.408 1.014-7.215-.562-28.286-9.273-10.973-4.537-19.469-8.638-20.212-9.757-1.015-1.528-1.029-2.433-.069-4.345 1.007-2.007 4.431-3.477 20.212-8.678 10.45-3.444 20.003-6.29 21.229-6.325s5.131.89 8.678 2.054l6.449 2.117-1.38 3.133c-.758 1.723-3.042 7.79-5.075 13.481-2.032 5.692-4.563 11.157-5.623 12.145-1.368 1.273-1.588 2.007-.757 2.52 2.104 1.3 3.905-1.878 9.018-15.924 7.493-20.579 5.521-18.467 22.907-24.537q20.194-7.051 13.545-7.052c-1.214 0-1.415-1.024-1.028-5.25 1.828-19.958 1.653-23.75-1.096-23.75-.779 0-1.82-1.062-2.314-2.359-1.145-3.012-4.424-3.675-17.428-3.523-13.207.155-16.038.781-16.445 3.638-.175 1.234-.974 2.244-1.774 2.244-2.573 0-3.149 4.21-2.398 17.5.404 7.15.562 13.193.351 13.429s-5.441.368-11.622.293l-11.237-.137-.5-20.792c-.486-20.209-.579-20.965-3.331-26.919-1.557-3.369-4.559-7.814-6.671-9.876-3.394-3.314-3.715-4.026-2.759-6.124.805-1.766 1.887-2.374 4.225-2.374 1.729 0 5.488-1.169 8.354-2.597 11.546-5.753 14.387-20.252 5.633-28.753l-3.479-3.379 1.615-6.304c2.462-9.612.261-18.515-6.477-26.188l-3.178-3.62 2.534-2.534c5.263-5.263 1.498-10.096-7.381-9.473l-4.967.348-1.159-4.144c-1.648-5.892-6.268-11.136-10.512-11.932-2.059-.386-4.018-.195-4.819.47-1.027.852-2.403.532-5.745-1.336-7.976-4.458-21.201-6.661-29.383-4.894M189 26c-3.871 3.871-1.673 14 3.038 14 2.223 0 3.269-3.047 2.786-8.112-.211-2.201-.849-3.388-1.824-3.388-1.95 0-2.498 4.698-.898 7.701 1.125 2.111 1.086 2.184-.488.885-1.221-1.007-1.627-2.588-1.414-5.5.25-3.399.688-4.141 2.608-4.413 1.872-.265 2.085-.597 1.128-1.75-1.585-1.91-2.564-1.795-4.936.577m20.557.223c-1.755 2.505-2.04 8.376-.592 12.184 1.221 3.212 5.567 4.489 7.772 2.285 3.056-3.056 1.379-16.834-2.022-16.613-.916.059-.907.203.035.583 1.873.756 1.507 2.037-.75 2.628-1.576.412-2 1.364-2 4.494 0 2.487.622 4.484 1.664 5.344 1.512 1.247 1.552 1.162.438-.927-1.6-3.003-1.052-7.701.898-7.701 1.666 0 2.548 5.181 1.555 9.138C215.257 42.81 209 38.73 209 32.712c0-3.028 1.587-6.736 3.4-7.947.775-.517.747-.739-.093-.75-.657-.008-1.894.985-2.75 2.208m22.019.027c-2.153 3.294-2.277 10.031-.242 13.137 1.795 2.739 6.883 3.689 8.215 1.533 1.335-2.16.532-14.277-1.037-15.629-.838-.723-1.064-.765-.508-.095 1.491 1.802 1.202 2.82-.605 2.127-.88-.338-1.999.014-2.485.781-1.705 2.694-.812 9.896 1.228 9.896.534 0 .489-.821-.107-1.934-1.354-2.53-1.325-6.769.052-7.62 2.143-1.324 3.134 1.315 2.426 6.461-.553 4.019-1.088 5.093-2.535 5.093-4.972 0-6.987-9.467-2.939-13.811 1.121-1.204 1.582-2.189 1.023-2.189s-1.678 1.012-2.486 2.25M88.367 28.802c-6.401 5.095-5.501 14.946 1.684 18.426 1.734.84 2.695 1.811 2.135 2.157-1.295.8-10.833-1.193-14.386-3.007C76.314 45.62 74.699 45 74.21 45c-1.723 0-3.107 4.748-2.234 7.66.469 1.562.891 2.468.938 2.013.047-.454 1.224.526 2.614 2.178 1.391 1.653 4.654 3.787 7.25 4.742s5.113 2.076 5.59 2.49 2.277.532 4 .262c2.423-.381 3.417-.022 4.39 1.582C97.88 67.775 97.781 68 95.842 68c-3.197 0-1.916.647 2.658 1.344 2.788.424 3.394.334 2-.297-1.858-.842-1.823-.917.5-1.06 4.566-.28 12.462-.118 15.25.313 1.923.297 2.75-.008 2.75-1.014 0-1.016.96-1.356 3.264-1.158 1.796.155 3.762-.026 4.37-.402.608-.375 3.976-.914 7.485-1.198 5.698-.46 9.406-.995 10.881-1.57.275-.107.923-.113 1.44-.013s2.869-.555 5.226-1.455c4.236-1.618 6.955-1.305 5.74.662-.344.557.859.245 2.674-.694 2.851-1.474 3.086-1.864 1.722-2.861-1.408-1.03-1.326-1.449.761-3.876 1.288-1.496 2.647-2.721 3.022-2.721.374 0 1.514-.961 2.533-2.136 2.059-2.374 1.774-5.015-1.18-10.917-1.606-3.211-6.483-6.735-7.673-5.545-.262.262.311 2.539 1.273 5.06.963 2.52 1.542 4.791 1.287 5.046-.254.255-1.782-1.291-3.394-3.436C152.316 31.937 141.265 27 129.17 27c-4.825 0-9.108.912-16.875 3.594-11.671 4.03-14.039 3.953-18.795-.611-2.876-2.759-3.088-2.808-5.133-1.181M8.079 35.823c-2.981.935-5.641 2.37-5.912 3.189-.418 1.262-.245 1.284 1.133.146.894-.737 4.23-2.159 7.413-3.158s5.112-1.831 4.287-1.848c-.825-.016-3.939.735-6.921 1.671M69 34.786c0 .432.867.785 1.927.785 1.059 0 1.708-.353 1.441-.785-.268-.432-1.134-.786-1.927-.786S69 34.354 69 34.786m-8 1.465c0 .726.9 1.32 2 1.32s2-.112 2-.25-.9-.732-2-1.321c-1.531-.819-2-.76-2 .251m-5 .847c0 .368.9.904 2 1.192 1.174.307 2 .03 2-.669 0-.656-.9-1.192-2-1.192s-2 .301-2 .669m-2.657 1.069c.491 1.543-1.724 3.387-3.593 2.992-.413-.088-.75.291-.75.841 0 1.503 1.528 1.208 3.883-.75C54.507 39.9 54.74 39.157 53.9 38c-.935-1.288-1.014-1.265-.557.167M48 38.74c0 .59-.9.837-2 .55-1.1-.288-2-.035-2 .562 0 .601.78.811 1.75.469 1.429-.502 1.52-.368.5.732-.687.741-1.25 1.768-1.25 2.282s.951-.275 2.114-1.753 1.838-2.964 1.5-3.301S48 38.15 48 38.74M39 41c-.901.582-1.025.975-.309.985.655.008 1.469-.435 1.809-.985.767-1.242.421-1.242-1.5 0m46.964.836c.659 1.284 1.472 2.061 1.807 1.726.336-.335-.203-1.386-1.197-2.336-1.728-1.65-1.755-1.623-.61.61M2.431 45.5c1.741 7.335 17.717 64.981 18.12 65.384 1.102 1.103.429-1.92-4.43-19.884C9.904 68.011 2.865 43.539 2.332 43.056c-.338-.306-.293.794.099 2.444M39 43.941c0 .518.445 1.216.989 1.552.566.35.734-.051.393-.941C39.717 42.82 39 42.503 39 43.941m-13 .845c0 .668.563 1.221 1.25 1.229.847.011.775.316-.221.946-.809.512-1.246 1.155-.971 1.43s1.162.091 1.971-.409c1.27-.785 1.231-1.149-.279-2.66-1.078-1.079-1.75-1.284-1.75-.536m4 .5c0 .707.9 1.285 2 1.285 2.392 0 2.629-1.116.418-1.964-2.199-.844-2.418-.782-2.418.679m-7 .683c0 .532-.788.721-1.75.418-1.494-.47-1.466-.319.191 1.031 1.068.87 2.418 1.546 3 1.503.6-.045.542-.289-.135-.565-.656-.267-.946-1.131-.643-1.921.303-.789.278-1.435-.056-1.435s-.607.436-.607.969m12.613.214c.289.467.944.591 1.456.274 1.308-.808 1.161-1.124-.525-1.124-.801 0-1.22.383-.931.85m-19.946 1.484c-.367.366-.667 1.341-.667 2.166 0 1.813 1.303.709 1.607-1.362.239-1.63.049-1.793-.94-.804m157.871 3.434C170.254 53.984 169.69 56 172.166 56c.576 0 .794-.661.485-1.468s-.064-1.777.547-2.154c.673-.416.83-.232.397.467-.876 1.419-.141 1.434 4.681.095 2.21-.613 3.505-1.485 3.124-2.101-.424-.687.177-.824 1.725-.394 2.294.636 2.309.605.434-.893-2.955-2.362-6.125-1.872-10.021 1.549m4.275-.418c.721.289 1.584.253 1.916-.079s-.258-.568-1.312-.525c-1.165.048-1.402.285-.604.604M158 59.531c0 1.618 1.563 1.986 2.435.574.305-.493-.119-1.153-.941-1.469-.907-.348-1.494.003-1.494.895m10.75-.451c-3.182 1.854-1.943 15.829 1.815 20.466.871 1.075 1.298 1.392.95.704-.843-1.664.528-1.532 2.926.282 2.206 1.668 8.128 1.974 9.059.468.34-.55 1.689-1 2.999-1 2.014 0 2.441.577 2.773 3.75.248 2.375.45 1.367.55-2.75.285-11.708-7.412-23.037-15.607-22.97-2.043.017-4.502.489-5.465 1.05m-99.908 9.67c-2.923 5.94-3.239 17.064-.619 21.75l1.677 3-.57-5.083-.569-5.084 3.369-.113c8.341-.28 11.998-1.431 13.069-4.112 2.242-5.611 1.889-7.007-2.039-8.069-3.952-1.068-8.177-3.627-9.46-5.729-1.366-2.238-2.439-1.479-4.858 3.44M159 65.97c-1.925.986-7.775 3.279-13 5.096-8.584 2.985-10.633 3.31-21.247 3.369-6.461.036-11.748.403-11.75.815s-1.324.75-2.938.75-4.164.467-5.667 1.039c-2.915 1.108-4.844-.265-3.919-2.789.309-.842-.632-1.25-2.883-1.25-3.018 0-3.583.489-5.845 5.06-2.007 4.055-2.181 4.934-.878 4.429 11.727-4.547 24.142-.121 29.431 10.493 1.804 3.621 2.748 4.598 3.798 3.934 1.974-1.25 9.284-1.13 10.587.173.785.785 1.887-.391 3.95-4.216 1.745-3.237 4.551-6.489 7.196-8.339 3.994-2.795 4.998-3.034 12.76-3.034 7.081 0 8.331-.239 7.84-1.5-.591-1.516-3.04-11.096-3.62-14.162-.29-1.531-.591-1.521-3.815.132m-33.75 4.719c.963.252 2.537.252 3.5 0 .963-.251.175-.457-1.75-.457s-2.713.206-1.75.457m22 .973c-.687.278-1.25 1.367-1.25 2.421 0 1.472.711 1.917 3.066 1.917 1.686 0 3.984.492 5.107 1.093 2.377 1.272 4.19.016 3.305-2.29-1.06-2.761-6.8-4.524-10.228-3.141m52.114 4.831c-.346.903-.15 2.121.436 2.707 1.524 1.524 4.41.131 4.012-1.935-.443-2.302-3.647-2.858-4.448-.772m23 0c-.346.903-.15 2.121.436 2.707 1.524 1.524 4.41.131 4.012-1.935-.443-2.302-3.647-2.858-4.448-.772m15.354-.201c-.293.764-.17 1.977.274 2.694 1.121 1.815 4.232.414 3.82-1.721-.415-2.159-3.369-2.861-4.094-.973m-3.97 4.388c-1.354 1.355-1.998 1.47-2.941.527-1.893-1.893-2.988-1.413-1.807.793.589 1.1 1.644 2 2.344 2 1.989 0 4.975-2.544 4.535-3.864-.272-.815-.943-.643-2.131.544m-148.768.844c-.696.838-1.012 1.777-.704 2.086s1.064-.377 1.678-1.524c1.31-2.448.824-2.728-.974-.562m9.489 4.538c-3.793 1.103-9.335 6.416-11.117 10.656-3.725 8.865-.219 18.121 9.01 23.782 1.082.663 1.427 1.747 1.026 3.219-.568 2.082-.777 2.131-3.377.787-1.524-.788-4.199-2.635-5.944-4.103l-3.172-2.669.696 2.883c1.092 4.527 4.967 11.655 7.743 14.244 2.009 1.874 3.372 2.282 6.599 1.974 2.834-.27 4.067-.001 4.067.889 0 .724-1.189 1.278-2.75 1.282-4.626.009-10.381 2.034-12.878 4.531-2.268 2.269-2.372 2.978-2.372 16.27 0 12.764.183 14.167 2.25 17.208 3.68 5.415 8.865 7.485 18.75 7.485 6.694 0 9.35-.446 12.5-2.098 6.689-3.507 7.815-6.604 8.212-22.581l.344-13.865-2.662-2.466c-1.622-1.504-4.951-2.94-8.527-3.678-5.881-1.215-7.896-2.812-3.549-2.812 4.208 0 12.263 2.925 14.411 5.232 1.161 1.247 2.259 3.618 2.441 5.268l.33 3 6.5-.317c17.159-.837 32.518-8.037 39.582-18.555 4.477-6.667 7.206-18.054 2.829-11.804-4.507 6.434-18.754 8.807-26.911 4.481-7.141-3.788-12.5-11.392-12.5-17.738 0-2.981-2.539-4.567-7.312-4.567-4.178 0-4.998.936-7.025 8.008-1.965 6.859-7.608 13.501-10.767 12.675-1.532-.4-2.257-.018-2.623 1.382-.325 1.24-1.374 1.935-2.925 1.935-2.081 0-2.274-.27-1.383-1.934.569-1.063 2.906-3.201 5.193-4.75 6.237-4.223 8.147-7.383 8.648-14.305.521-7.204-.831-10.948-5.402-14.961-5.081-4.461-11.445-5.876-17.935-3.988m58.031.14c-4.393 1.528-9.238 6.545-11.146 11.541-1.401 3.668-1.486 5.174-.527 9.328 1.518 6.577 3.566 9.489 8.853 12.587 9.034 5.294 21.083 1.48 25.407-8.042 6.641-14.625-7.586-30.634-22.587-25.414m-55.237 7.987c-3.702.985-6.263 5.004-6.263 9.827 0 4.231 1.468 6.657 5.192 8.584 3.029 1.566 3.194 1.541 4.927-.74 1.587-2.089 2.037-2.209 3.928-1.044 1.844 1.135 2.325 1.067 3.513-.5 3.19-4.207 2.312-12.423-1.585-14.832-2.473-1.528-6.712-2.093-9.712-1.295m58.021-.488c-5.446 1.054-9.103 10.032-6.254 15.354 1.211 2.263 6.023 4.945 8.873 4.945 7.775 0 12.881-9.58 8.466-15.883-1.333-1.904-7.523-5.494-8.587-4.981-.155.075-1.279.329-2.498.565M94.04 97.452c-1.451 1.748-.557 5.136 1.571 5.952 2.146.824 5.389-1.125 5.389-3.239 0-3.762-4.601-5.555-6.96-2.713m57.16-.252c-1.701 1.701-1.492 3.226.717 5.225 1.529 1.384 2.338 1.509 4 .62C159.394 101.184 157.983 96 154 96c-.88 0-2.14.54-2.8 1.2m-84.09 1.17c-3.367 1.902-5.033 5.397-5.075 10.646-.043 5.547 2.582 10.743 6.928 13.71 3.078 2.101 9.628 4.017 10.557 3.088.234-.235-.07-2.201-.676-4.37S77.462 113 77.121 107.5l-.621-10-3.5-.24c-1.925-.132-4.575.367-5.89 1.11m115.31-.764c-.662.274-.911 2.488-.643 5.724.41 4.942-1.007 17.5-2.378 21.072-.883 2.302 2.972 2.081 8.248-.473 9.83-4.759 12.076-17.777 4.21-24.396-2.745-2.31-6.611-3.099-9.437-1.927m-58.97 13.681c-.965 2.49 2.213 5.713 5.634 5.713 3.223 0 5.916-2.308 5.916-5.071 0-2.604-1.303-2.438-2.513.321-.947 2.159-5.487 3.823-5.487 2.011 0-.483-.643-1.752-1.429-2.82-1.348-1.833-1.467-1.841-2.121-.154m-102.371 2.296c.048 1.165.285 1.402.604.605.289-.722.253-1.585-.079-1.917s-.568.258-.525 1.312m201.301 2.869c-.697 1.815.315 3.548 2.072 3.548 1.516 0 2.84-2.718 1.992-4.09-.874-1.415-3.445-1.071-4.064.542m14.984.041c-.346.903-.15 2.121.436 2.707 1.524 1.524 4.41.131 4.012-1.935-.443-2.302-3.647-2.858-4.448-.772M22.086 117c.03.825.441 2.4.914 3.5l.859 2 .055-2c.031-1.1-.381-2.675-.914-3.5-.862-1.333-.963-1.333-.914 0m179.514.6c-.356.927-.422 1.911-.147 2.186s.791-.259 1.147-1.186.422-1.911.147-2.186-.791.259-1.147 1.186m26.534 2.793c.878 4.537 6.854 4.537 7.732 0 .358-1.852.32-1.851-1.75.012-2.081 1.873-2.151 1.873-4.232 0-2.07-1.863-2.108-1.864-1.75-.012M25.158 128c0 1.375.227 1.938.504 1.25.278-.687.278-1.812 0-2.5-.277-.687-.504-.125-.504 1.25m35.655-1.317c.721.289 1.584.253 1.916-.079s-.258-.568-1.312-.525c-1.165.048-1.402.285-.604.604m184.266 3.9c.048 1.165.285 1.402.604.605.289-.722.253-1.585-.079-1.917s-.568.258-.525 1.312m-178.329.079c.688.278 1.813.278 2.5 0 .688-.277.125-.504-1.25-.504s-1.937.227-1.25.504m-3.937 1.021c.721.289 1.584.253 1.916-.079s-.258-.568-1.312-.525c-1.165.048-1.402.285-.604.604m108.855 5.739c-.3.783-3.211 3.302-6.469 5.6l-5.923 4.177 2.864 7.65c1.575 4.208 2.664 8.181 2.421 8.828-.574 1.528 1.502 3.223 3.985 3.253 1.075.012 4.606.319 7.847.682 4.283.479 5.701.349 5.191-.476-.386-.625-.24-1.136.326-1.136.565 0 .782-.64.482-1.422-.719-1.872 1.422-5.811 2.722-5.008 1.438.889.092-6.061-2.207-11.4-2.268-5.266-7.592-12.17-9.384-12.17-.72 0-1.555.64-1.855 1.422m-150.465 5.58c-1.139 2.007-2.2 2.79-3.203 2.364-3.813-1.618-5.494-.929-5.813 2.384-.258 2.668-.74 3.25-2.691 3.25-3.045 0-3.887 1.401-2.453 4.081 1.445 2.7 1.834 19.92.45 19.919-.553 0-2.496-.427-4.316-.949-2.471-.709-3.209-.645-2.912.25.405 1.221 18.2 4.546 24.863 4.645 4.053.06 5.611 1.387 5.952 5.066.476 5.126-.095 7.058-2.33 7.891-2.131.795-2.281.541-2.832-4.782l-.582-5.621-.168 5.711-.168 5.712-4.25 1.087c-2.337.598-5.555 1.516-7.149 2.039-5.48 1.797-6.599 1.324-6.616-2.799-.009-2.062-.452-4.425-.985-5.25-.688-1.065-.974.169-.985 4.25-.011 4.21-.384 5.75-1.393 5.75-.757 0-1.915.648-2.573 1.441-1.019 1.227-.778 1.298 1.628.478 1.553-.529 8.377-2.283 15.166-3.896s12.948-3.434 13.686-4.047 1.632-2.433 1.986-4.045c.544-2.478 1.127-2.931 3.764-2.931 2.141 0 2.798-.323 2.091-1.03-.706-.706-.46-3.298.783-8.25 2.037-8.112 2.381-15.272.782-16.26-.701-.433-.5-1.283.588-2.485 2.402-2.654 1.512-5.412-1.871-5.8-2.404-.276-2.744-.673-2.251-2.636.847-3.375-1.673-5.192-5.06-3.649-1.43.652-2.677 1.056-2.773.897-4.117-6.824-5.762-7.371-8.365-2.785m.189 2.602c-1.405 3.364-1.623 3.497-3.277 2-2.452-2.219-5.115-2.041-5.115.341 0 2.649 8.916 11.003 11.775 11.032 1.749.018 2.418-.69 2.891-3.058.357-1.785.914-2.599 1.323-1.936.992 1.605 7.011-3.608 7.011-6.072 0-2.574-2.803-2.444-5.686.263-2.219 2.085-2.314 2.094-2.314.223 0-2.265-2.653-6.397-4.108-6.397-.547 0-1.672 1.622-2.5 3.604m71.636-.869c-1.359.254-3.297 1.04-4.305 1.747-1.697 1.188-1.594 1.367 1.371 2.401 4.492 1.566 22.682 1.35 26.406-.313l3-1.34-3.718-1.615c-4.169-1.811-8.782-2.134-8.782-.615 0 .55-.873 1-1.941 1s-2.219-.45-2.559-1c-.621-1.005-4.878-1.125-9.472-.265m.413 1.847c-1.608 1.31-1.646 1.489-.223 1.043.945-.296 1.984-.107 2.309.419s1.266.956 2.091.956 1.222-.45.882-1c-.352-.569.509-1 2-1s2.352-.431 2-1c-.962-1.557-6.902-1.176-9.059.582m-21.691 4.08c.688.278 1.813.278 2.5 0 .688-.277.125-.504-1.25-.504s-1.937.227-1.25.504m-63.246 2.331c-1.35 2.185 3.531 6.007 7.67 6.007 4.545 0 4.844-1.139 1.015-3.865-3.673-2.616-7.768-3.626-8.685-2.142m24.471 1.257c-4.837 3.278-4.914 4.75-.247 4.75 2.537 0 4.658-.711 6.083-2.039 5.034-4.69.318-6.88-5.836-2.711m43.757-.25c.942 1.1 1.837 2 1.99 2s.278-.9.278-2c0-1.33-.667-2-1.99-2-1.895 0-1.908.096-.278 2m62.257.75c-2.829 3.607-5.75 5.171-9.739 5.215L126 160v6.532c0 12.988-5.84 19.184-19.832 21.04-2.842.377-5.174 1.19-5.182 1.807-.007.616-.285 2.133-.616 3.371l-.603 2.25h30.977l.628-3.923c.796-4.977 4.606-8.826 11.955-12.077 4.012-1.774 5.689-3.08 5.779-4.5.113-1.797.174-1.814.599-.168.403 1.561 1.162 1.742 5.134 1.231 2.564-.33 5.336-.149 6.161.403 1.118.748.388 1.007-2.866 1.019l-4.367.015 3.56 3.94c3.565 3.946 5.363 9.313 4.38 13.072-.777 2.97 1.937 2.498 5.37-.935 2.49-2.49 2.923-3.703 2.923-8.184 0-3.38-.789-6.894-2.207-9.827-2.512-5.197-14.789-17.881-19.293-19.933-1.65-.751-3.781-1.764-4.736-2.25-2.384-1.212-2.35-1.226-4.775 1.867m-75.066 1.173c-4.151 4.151-4.118 10.035.079 14.233 2.545 2.545 3.496 2.899 6.25 2.327 8.391-1.744 11.17-11.036 4.959-16.585-4.15-3.709-7.562-3.701-11.288.025m66.265-2.188c-3.772.338-4.272.66-3.999 2.576.434 3.034 5.358 2.597 8.73-.776 1.631-1.63 2.008-2.473 1.058-2.36-.812.096-3.417.348-5.789.56m-40.278 5.873c-1.134 1.367-1.048 1.818.569 3 1.047.766 2.219 1.392 2.605 1.392 1.363 0 1.936-3.271.811-4.627-1.48-1.783-2.352-1.732-3.985.235m21.048-.058c-1.062 1.281-.997 1.84.378 3.214 1.552 1.553 1.776 1.553 3.328 0 1.375-1.374 1.44-1.933.378-3.214-.708-.852-1.627-1.55-2.042-1.55s-1.334.698-2.042 1.55m111.297.116c-3.488.369-4.355.884-4.859 2.891-.337 1.344-1.127 2.45-1.754 2.458-.628.009-.467.452.358.985 1.783 1.152 30.402 1.152 34 0q2.5-.801.75-.9c-1.015-.058-1.75-.895-1.75-1.993 0-1.041-.787-2.206-1.75-2.588-2.19-.869-19.305-1.453-24.995-.853M9.53 166.25c1.265 9.248 1.131 9.125 11.538 10.543C30.45 178.071 33 179.103 33 181.622c0 .758.658 1.378 1.461 1.378 1.76 0 4.341-8.044 5.213-16.25l.611-5.75H8.812zm87.978-4.262c-.999 1.615 2.385 5.012 4.992 5.012 2.883 0 6.263-3.637 4.769-5.131-.778-.778-1.402-.49-2.212 1.024-1.415 2.645-2.471 2.652-4.913.032-1.319-1.417-2.156-1.714-2.636-.937m128.242.755c3.988.189 10.512.189 14.5 0 3.988-.19.725-.346-7.25-.346s-11.238.156-7.25.346m-40.671 3.84c.048 1.165.285 1.402.604.605.289-.722.253-1.585-.079-1.917s-.568.258-.525 1.312m28.187 3.167c-.264.688-.198 1.985.146 2.882.558 1.452 2.668 1.582 19.105 1.17 10.162-.255 18.648-.652 18.856-.883s.654-1.319.991-2.419c.598-1.953.15-2-19.003-2-14.77 0-19.734.309-20.095 1.25M76.5 172.029c-1.808.684-1.835.824-.283 1.458 2.247.918 3.91.309 3.001-1.101-.426-.66-1.532-.805-2.718-.357m94.135 2.332c1.133 2.376 2.131 3.282 3.173 2.882 1.036-.397 1.275-.186.75.664-.561.907.007 1.157 2.086.92 2.535-.29 2.856-.72 2.856-3.827v-3.5l-5.259-.303-5.259-.302zM67 175.908c0 3.396 8.616 5.465 10.966 2.633.994-1.198.793-1.544-1.128-1.935C71.36 175.49 67 175.18 67 175.908m10.23 5.098-3.27 1.761 4.04 1.616c2.222.89 5.936 1.617 8.252 1.617h4.212l-3.732-2.536c-2.053-1.395-3.732-2.97-3.732-3.5 0-1.36-1.969-1.005-5.77 1.042m69.77-1.304c0 .387 1.463 2.213 3.25 4.058 2.923 3.018 3.247 3.942 3.217 9.185-.031 5.445.101 5.781 2 5.088 8.107-2.96 3.555-19.033-5.39-19.033-1.692 0-3.077.316-3.077.702m-7.686 4.248c-1.753 1.069-3.665 2.837-4.25 3.931-2.974 5.556.984 12.119 7.309 12.119 4.838 0 6.481-.816 8.153-4.051 1.982-3.832.888-8.423-2.732-11.469-3.547-2.985-4.37-3.036-8.48-.53m-88.75 4.343c.376.986.935 1.541 1.243 1.233s.001-1.114-.683-1.793c-.988-.98-1.102-.865-.56.56M26.75 199.209c-4.263 1.108-7.75 2.359-7.75 2.78 0 .703 16.966-3.629 17.917-4.575.788-.784-2.435-.215-10.167 1.795m-15.947 7.044c.388 6.095.259 6.556-2.446 8.747-1.647 1.333-2.081 2.035-1.025 1.656 1.007-.361 2.008-.656 2.224-.656s1.079-1.328 1.918-2.95c1.87-3.615 1.975-9.053.223-11.45-1.108-1.516-1.242-.819-.894 4.653m16.428-1.981c-3.999 1.112-7.079 2.213-6.846 2.446.611.612 13.936-2.777 15.065-3.831 1.254-1.171.519-1.047-8.219 1.385m48.582 1.023c-1.478.663-4.442 3.23-6.587 5.705C64.062 216.961 51 235.013 51 236.19c0 .51-.45.65-1 .31-1.656-1.023-1.14 5.139.548 6.54 2.527 2.097 7.79-1.176 13.184-8.2 2.622-3.415 7.303-9.391 10.402-13.28 5.34-6.7 8.866-13.137 8.866-16.182 0-1.683-3.528-1.724-7.187-.083m36.984.76c1.813.565 3.557 1.703 3.874 2.529.502 1.31.811 1.29 2.412-.159 1.009-.913 3.316-2.043 5.126-2.51 3.075-.794 3.028-.817-.709-.36-5.171.634-6.288.634-10.5 0l-3.5-.526zm-38.708 2.35-2.26 2.406 2.085.662c1.148.364 2.086 1.081 2.086 1.594 0 1.775 1.683.924 2.733-1.381.677-1.484.716-2.919.111-4-1.261-2.254-2.078-2.13-4.755.719m-41.351-.713c-.969.253-1.465.941-1.101 1.53.444.718-.292.853-2.238.41-2.277-.518-2.529-.435-1.175.39 2.04 1.24 7.94-.015 8.541-1.818.404-1.212-.772-1.361-4.027-.512m61.075-.009c.721.289 1.584.253 1.916-.079s-.258-.568-1.312-.525c-1.165.048-1.402.285-.604.604m46.937-.021c.688.278 1.813.278 2.5 0 .688-.277.125-.504-1.25-.504s-1.937.227-1.25.504m-55.238 2.588c-6.149 18.092-10.305 32.125-9.859 33.288.493 1.285 6.277 1.448 43.208 1.223l42.639-.261-.163-3.5c-.314-6.761-6.456-31.206-7.967-31.71-.696-.232-.229 3.301 1.246 9.419 1.298 5.385 2.783 11.816 3.3 14.291.518 2.475 1.209 5.745 1.536 7.267l.595 2.768-21.523-.268c-11.837-.147-21.523-.56-21.523-.919-.002-1.874 6.457-2.571 16.587-1.79 6.002.462 13.837.804 17.412.76l6.5-.081-7-.858c-6.296-.772-24.394-1.274-33.5-.93-1.925.073-5.275-.17-7.444-.54s-9.953-.11-17.298.577c-7.345.688-13.549 1.057-13.786.82-.468-.468 7.734-27.712 8.921-29.633.399-.645.234-1.173-.365-1.173-.6 0-1.282.563-1.516 1.25m31.567 2.333c.048 1.165.285 1.402.604.605.289-.722.253-1.585-.079-1.917s-.568.258-.525 1.312m82.288 1.101c1.99 1.043 3.148 1.033 6.286-.054l3.847-1.331-6.287.053c-5.724.049-6.068.168-3.846 1.332m-185.006.541c-.618.999 1.576.878 4.139-.23 1.705-.736 1.582-.84-.83-.705-1.556.088-3.045.508-3.309.935m47.898 8.28-6.241 8.422 2.38 2.38 2.381 2.381 5.935-8.094c7.696-10.495 7.664-10.433 6.25-12.138-2.303-2.775-4.494-1.332-10.705 7.049M184 215.526c0 .233 1.31 1.1 2.91 1.928 2.324 1.201 3.584 1.28 6.25.389 1.837-.614 3.79-1.571 4.34-2.127.672-.678.395-.796-.843-.359-4.493 1.588-6.822 1.781-9.639.799-1.66-.579-3.018-.862-3.018-.63m25.5.514c-1.1.451-1.699.851-1.332.89.368.038 1.454.371 2.414.74 1.148.44 1.511.289 1.06-.441-.479-.775.454-.934 3.086-.528 4.404.68 4.202-.16-.228-.947-1.65-.293-3.9-.164-5 .286m-30.687 1.643c.721.289 1.584.253 1.916-.079s-.258-.568-1.312-.525c-1.165.048-1.402.285-.604.604m21.187.398c-1.177.824-1.02.915.73.424 1.226-.345 3.026-.181 4 .364 1.582.885 1.478 1.101-.98 2.036-1.862.708-3.602.722-5.389.042-1.451-.552-2.863-.778-3.138-.503-.542.542 4.203 2.556 6.021 2.556 1.868 0 7.756-2.356 7.756-3.103 0-.637-5.462-2.918-6.899-2.882-.331.009-1.276.488-2.101 1.066m-28 1.403c0 .34 1.509 1.248 3.352 2.019 2.634 1.1 4.135 1.16 7 .281 2.007-.616 3.648-1.524 3.648-2.019 0-.498-1.004-.55-2.25-.117-1.238.431-3.375.783-4.75.783s-3.512-.352-4.75-.783-2.25-.504-2.25-.164m-158.436 1.809c.376.986.935 1.541 1.243 1.233s.001-1.114-.683-1.793c-.988-.98-1.102-.865-.56.56m171.516 1.801c-3.041 1.216-1.715 2.77 3.006 3.523 4.267.681 9.737-1.194 8.141-2.79-.798-.798-1.546-.651-2.734.537-1.824 1.825-4.247 2.077-6.465.674-1.664-1.052-.798-1.565 3.972-2.353 2.177-.359 2.112-.422-.5-.485-1.65-.04-4.089.362-5.42.894m22.458 1.255c-1.729 1.264-1.655 1.414 1.165 2.398 1.663.579 3.61.678 4.351.22.97-.6.568-1.024-1.451-1.531-2.043-.512-2.432-.93-1.448-1.553.74-.469.869-.859.286-.868-.582-.008-1.889.592-2.903 1.334m-10.288 2.682c-2.761 1.11-2.878 2.563-.316 3.934 2.893 1.548 5.57 1.258 8.205-.887l2.361-1.923-2.815-1.077c-3.295-1.262-4.395-1.269-7.435-.047m2.75.875c0 .499-.97.653-2.156.343-1.478-.387-1.932-.2-1.441.593.829 1.342 5.48 1.518 7.431.282 1.064-.675.997-.975-.332-1.485-2.316-.888-3.502-.798-3.502.267m-157.187 4.777c.721.289 1.584.253 1.916-.079s-.258-.568-1.312-.525c-1.165.048-1.402.285-.604.604m-8.941 2.067c-1.243 1.586-1.208 1.621.378.378.962-.755 1.75-1.543 1.75-1.75 0-.823-.821-.294-2.128 1.372M46 233.393c0 .216.698.661 1.552.989.89.341 1.291.173.941-.393-.587-.951-2.493-1.406-2.493-.596m6.437 4.063c-1.599 2.44-1.165 5.112.648 3.991.521-.322.715-.962.43-1.423s.332-.615 1.371-.344c2.218.58 3.373-.842 2.51-3.09-.894-2.33-3.12-1.941-4.959.866m-12.168.237c.973.254 2.323.237 3-.037s-.119-.481-1.769-.461-2.204.244-1.231.498M96 240.071c-5.775.376-12.439.739-14.809.806-2.662.076-4.067.515-3.676 1.148.406.656 7.258.926 19.053.75 16.816-.251 21.409-.833 16.682-2.115-4.146-1.124-7.348-1.233-17.25-.589m-96 13.94c0 1.986.661 1.995 128.25 1.743 127.391-.252 128.252-.267 128.537-2.254.286-1.992-.211-1.999-128.25-1.742C.832 252.013 0 252.028 0 254.011M.158 254c0 1.375.227 1.938.504 1.25.278-.687.278-1.812 0-2.5-.277-.687-.504-.125-.504 1.25"/></svg>